<?xml version="1.0" encoding="UTF-8" standalone="no"?>
<!-- Created with Inkscape (http://www.inkscape.org/) -->

<svg
   width="32.509354mm"
   height="27.38966mm"
   viewBox="0 0 32.509354 27.38966"
   version="1.1"
   id="svg5"
   xmlns="http://www.w3.org/2000/svg"
   xmlns:svg="http://www.w3.org/2000/svg">
  <defs
     id="defs2" />
  <path
     d="M 25.571778,1.1902922 C 26.36533,0.39680705 27.405407,-1.95e-6 28.445418,-1.95e-6 c 1.040011,0 2.080154,0.396809 2.873705,1.19029415 0.793486,0.7935519 1.190229,1.8336289 1.190229,2.8736397 0,1.0401432 -0.396743,2.0801542 -1.190229,2.8737057 -0.793551,0.7934855 -1.833694,1.1902943 -2.873705,1.1902943 -1.040011,0 -2.080154,-0.3968088 -2.87364,-1.1902943 -0.793551,-0.7934852 -1.190294,-1.8335625 -1.190294,-2.8737057 0,-1.0400108 0.396743,-2.0800878 1.190294,-2.8736397 z m 4.875543,2.6834704 c 0.121709,0 0.220398,0.09869 0.220398,0.220398 0,0.1217745 -0.09869,0.220464 -0.220398,0.220464 -1.354468,0 -2.708936,0 -4.063404,0 -0.121709,0 -0.220464,-0.098689 -0.220464,-0.220464 0,-0.1217082 0.09869,-0.220398 0.220464,-0.220398 1.354468,0 2.709003,0 4.063404,0 z M 28.445418,0.44086005 c -0.927233,0 -1.854399,0.35374796 -2.561895,1.06124365 -0.707429,0.7074299 -1.061177,1.6346622 -1.061177,2.5618282 0,0.9272325 0.353748,1.8544647 1.061177,2.5618942 0.707496,0.707496 1.634662,1.0612438 2.561895,1.0612438 0.927232,0 1.854398,-0.3537478 2.561894,-1.0612438 0.70743,-0.7074295 1.061244,-1.634728 1.061244,-2.5618942 0,-0.927166 -0.353814,-1.8543983 -1.061244,-2.5618282 C 30.299883,0.79460801 29.37265,0.44086005 28.445418,0.44086005 Z"
     id="path825"
     style="display:inline;stroke-width:0.0661457" />
  <g
     id="layer1"
     transform="translate(-70.903877,-148.64314)"
     style="display:inline">
    <path
       class="st0"
       d="m 72.351147,148.64314 h 29.614813 c 0.7964,0 1.44727,0.65087 1.44727,1.44727 v 24.49512 c 0,0.7964 -0.65087,1.44727 -1.44727,1.44727 H 72.351147 c -0.796395,0 -1.44727,-0.65087 -1.44727,-1.44727 v -24.49512 c 0,-0.7964 0.650875,-1.44727 1.44727,-1.44727 z m 6.977063,10.19968 4.706938,4.87363 0.566208,0.56356 -0.560917,0.5715 -4.754562,5.04031 -1.341438,-1.32291 4.193646,-4.27302 -4.140729,-4.11692 z m 16.472959,10.81088 h -10.42723 v -1.80975 h 10.42723 z M 81.008314,151.24399 c 0.844021,0 1.529292,0.68527 1.529292,1.52929 0,0.84402 -0.685271,1.52929 -1.529292,1.52929 -0.844021,0 -1.529292,-0.68527 -1.529292,-1.52929 0,-0.84402 0.685271,-1.52929 1.529292,-1.52929 z m -5.090583,0 c 0.844021,0 1.529291,0.68527 1.529291,1.52929 0,0.84402 -0.68527,1.52929 -1.529291,1.52929 -0.844021,0 -1.529292,-0.68527 -1.529292,-1.52929 0,-0.84402 0.682625,-1.52929 1.529292,-1.52929 z m -3.032125,-1.16946 h 28.551184 c 0.30427,0 0.55298,0.24871 0.55298,0.55298 v 4.84717 H 72.332627 v -4.84717 c 0,-0.30427 0.248708,-0.55298 0.552979,-0.55298 z"
       id="path11"
       style="display:inline;stroke-width:0.264583" />
    <path
       d="m 96.47566,149.83343 c 0.79355,-0.79348 1.83362,-1.19029 2.87363,-1.19029 1.04002,0 2.08016,0.39681 2.87371,1.19029 0.79348,0.79355 1.19023,1.83363 1.19023,2.87364 0,1.04014 -0.39675,2.08016 -1.19023,2.87371 -0.79355,0.79348 -1.83369,1.19029 -2.87371,1.19029 -1.04001,0 -2.08015,-0.39681 -2.87363,-1.19029 -0.79356,-0.79349 -1.1903,-1.83357 -1.1903,-2.87371 0,-1.04001 0.39674,-2.08008 1.1903,-2.87364 z m 2.62341,0.87227 c 0,-0.12171 0.0987,-0.2204 0.22046,-0.2204 0.12177,0 0.22046,0.0987 0.22046,0.2204 v 1.81127 h 1.81127 c 0.12171,0 0.2204,0.0987 0.2204,0.2204 0,0.12177 -0.0987,0.22046 -0.2204,0.22046 h -1.81133 v 1.81127 c 0,0.12171 -0.0987,0.2204 -0.22047,0.2204 -0.12177,0 -0.22046,-0.0987 -0.22046,-0.2204 v -1.81134 h -1.81121 c -0.1217,0 -0.22046,-0.0987 -0.22046,-0.22046 0,-0.12171 0.0987,-0.2204 0.22046,-0.2204 h 1.81128 z m 0.25022,-1.6217 c -0.92723,0 -1.85439,0.35375 -2.56189,1.06124 -0.70743,0.70743 -1.06118,1.63467 -1.06118,2.56183 0,0.92723 0.35375,1.85447 1.06118,2.5619 0.7075,0.70749 1.63466,1.06124 2.56189,1.06124 0.92724,0 1.8544,-0.35375 2.5619,-1.06124 0.70743,-0.70743 1.06124,-1.63473 1.06124,-2.5619 0,-0.92716 -0.35381,-1.8544 -1.06124,-2.56183 -0.70743,-0.70749 -1.63466,-1.06124 -2.5619,-1.06124 z"
       id="path23"
       style="display:none;stroke-width:0.0661457" />
  </g>
  <style
     type="text/css"
     id="style9">.st0{fill-rule:evenodd;clip-rule:evenodd;}</style>
</svg>
