<?xml version="1.0" encoding="UTF-8" standalone="no"?>
<!-- Created with Inkscape (http://www.inkscape.org/) -->

<svg
   width="32.509354mm"
   height="27.38966mm"
   viewBox="0 0 32.509354 27.38966"
   version="1.1"
   id="svg5"
   xmlns="http://www.w3.org/2000/svg"
   xmlns:svg="http://www.w3.org/2000/svg">
  <defs
     id="defs2" />
  <g
     id="layer1"
     transform="translate(-102.40075,-121.89662)">
    <g
       id="layer1-7"
       transform="translate(13.218359,-31.806677)">
      <g
         id="layer1-7-6"
         transform="translate(18.278512,5.0601536)">
        <path
           class="st0"
           d="m 72.351147,148.64314 h 29.614813 c 0.7964,0 1.44727,0.65087 1.44727,1.44727 v 24.49512 c 0,0.7964 -0.65087,1.44727 -1.44727,1.44727 H 72.351147 c -0.796395,0 -1.44727,-0.65087 -1.44727,-1.44727 v -24.49512 c 0,-0.7964 0.650875,-1.44727 1.44727,-1.44727 z m 6.977063,10.19968 4.706938,4.87363 0.566208,0.56356 -0.560917,0.5715 -4.754562,5.04031 -1.341438,-1.32291 4.193646,-4.27302 -4.140729,-4.11692 z m 16.472959,10.81088 h -10.42723 v -1.80975 h 10.42723 z M 81.008314,151.24399 c 0.844021,0 1.529292,0.68527 1.529292,1.52929 0,0.84402 -0.685271,1.52929 -1.529292,1.52929 -0.844021,0 -1.529292,-0.68527 -1.529292,-1.52929 0,-0.84402 0.685271,-1.52929 1.529292,-1.52929 z m -5.090583,0 c 0.844021,0 1.529291,0.68527 1.529291,1.52929 0,0.84402 -0.68527,1.52929 -1.529291,1.52929 -0.844021,0 -1.529292,-0.68527 -1.529292,-1.52929 0,-0.84402 0.682625,-1.52929 1.529292,-1.52929 z m -3.032125,-1.16946 h 28.551184 c 0.30427,0 0.55298,0.24871 0.55298,0.55298 v 4.84717 H 72.332627 v -4.84717 c 0,-0.30427 0.248708,-0.55298 0.552979,-0.55298 z"
           id="path11"
           style="stroke-width:0.264583" />
        <path
           d="m 96.47566,149.83343 c 0.79355,-0.79348 1.83362,-1.19029 2.87363,-1.19029 1.04002,0 2.08016,0.39681 2.87371,1.19029 0.79348,0.79355 1.19023,1.83363 1.19023,2.87364 0,1.04014 -0.39675,2.08016 -1.19023,2.87371 -0.79355,0.79348 -1.83369,1.19029 -2.87371,1.19029 -1.04001,0 -2.08015,-0.39681 -2.87363,-1.19029 -0.79356,-0.79349 -1.1903,-1.83357 -1.1903,-2.87371 0,-1.04001 0.39674,-2.08008 1.1903,-2.87364 z m 2.62341,0.87227 c 0,-0.12171 0.0987,-0.2204 0.22046,-0.2204 0.12177,0 0.22046,0.0987 0.22046,0.2204 v 1.81127 h 1.81127 c 0.12171,0 0.2204,0.0987 0.2204,0.2204 0,0.12177 -0.0987,0.22046 -0.2204,0.22046 h -1.81133 v 1.81127 c 0,0.12171 -0.0987,0.2204 -0.22047,0.2204 -0.12177,0 -0.22046,-0.0987 -0.22046,-0.2204 v -1.81134 h -1.81121 c -0.1217,0 -0.22046,-0.0987 -0.22046,-0.22046 0,-0.12171 0.0987,-0.2204 0.22046,-0.2204 h 1.81128 z m 0.25022,-1.6217 c -0.92723,0 -1.85439,0.35375 -2.56189,1.06124 -0.70743,0.70743 -1.06118,1.63467 -1.06118,2.56183 0,0.92723 0.35375,1.85447 1.06118,2.5619 0.7075,0.70749 1.63466,1.06124 2.56189,1.06124 0.92724,0 1.8544,-0.35375 2.5619,-1.06124 0.70743,-0.70743 1.06124,-1.63473 1.06124,-2.5619 0,-0.92716 -0.35381,-1.8544 -1.06124,-2.56183 -0.70743,-0.70749 -1.63466,-1.06124 -2.5619,-1.06124 z"
           id="path23"
           style="stroke-width:0.0661457" />
        <path
           style="fill:#800080;stroke-width:0.390306"
           d="m 347.17277,519.10246 -2.3217,-2.34618 7.98974,-7.99688 7.98974,-7.99688 -7.79455,-7.80186 -7.79454,-7.80185 2.29034,-2.3145 2.29035,-2.31449 6.47915,6.70113 c 3.56353,3.68562 7.95248,8.22829 9.75322,10.09483 l 3.27406,3.39369 -9.70968,10.32897 c -5.34033,5.68093 -9.803,10.345 -9.91706,10.36458 -0.11405,0.0196 -1.25213,-1.02016 -2.52907,-2.31056 z"
           id="path1624"
           transform="matrix(0.26458333,0,0,0.26458333,-13.218359,31.806677)" />
        <path
           style="fill:#800080;stroke-width:0.390306"
           d="m 372.74211,517.54559 v -3.12245 h 19.51529 19.51529 v 3.12245 3.12244 H 392.2574 372.74211 Z"
           id="path1663"
           transform="matrix(0.26458333,0,0,0.26458333,-13.218359,31.806677)" />
        <path
           style="fill:#800080;stroke-width:0.390306"
           d="m 323.56357,457.7117 c 0,-6.85638 0.12978,-9.61422 0.46836,-9.9528 0.35878,-0.35878 10.82304,-0.46837 44.72255,-0.46837 24.3398,0 44.19463,0.13173 44.12184,0.29273 -0.0728,0.161 -0.5938,1.17092 -1.1578,2.24426 -2.65524,5.05306 -2.22749,11.76653 1.02107,16.0256 l 1.02436,1.34301 h -45.10019 -45.10019 z m 16.43925,4.58161 c 2.62005,-1.35489 3.56434,-5.76603 1.79977,-8.40744 -1.02453,-1.53362 -3.08309,-2.6908 -4.78834,-2.69168 -1.83944,-9.3e-4 -4.50962,1.56203 -5.32296,3.11575 -2.24502,4.28871 1.24614,9.44774 5.9098,8.73315 0.74392,-0.11399 1.8247,-0.45139 2.40173,-0.74978 z m 18.53174,0.25606 c 3.97504,-1.80525 4.77141,-6.88971 1.52551,-9.73965 -2.53524,-2.22597 -6.12083,-1.99936 -8.33903,0.52703 -2.23989,2.55109 -1.99766,6.26211 0.54126,8.29208 2.23258,1.78504 3.84696,2.02198 6.27226,0.92054 z"
           id="path2505"
           transform="matrix(0.26458333,0,0,0.26458333,-13.218359,31.806677)" />
        <path
           style="fill:#f9f9f9;stroke-width:0.390306"
           d="m 415.12471,465.50723 c -4.10253,-5.00659 -4.06585,-12.71766 0.0815,-17.14336 l 1.00584,-1.07334 h 9.02111 c 6.49601,0 9.1522,0.1311 9.48947,0.46837 0.66484,0.66484 0.66484,18.30402 0,18.96886 -0.33682,0.33682 -2.96052,0.46837 -9.34121,0.46837 h -8.87284 z m 11.0893,-3.58023 v -3.70791 h 3.28568 c 3.76335,0 4.52044,-0.1961 4.52044,-1.17091 0,-0.97481 -0.75709,-1.17092 -4.52044,-1.17092 h -3.28568 v -3.73505 c 0,-3.65014 -0.02,-3.73222 -0.87819,-3.61033 -0.82883,0.11771 -0.88449,0.32762 -0.99041,3.73505 l -0.11222,3.61033 -3.20538,0.006 c -3.50133,0.007 -4.33123,0.29009 -4.11751,1.40687 0.12346,0.64508 0.5766,0.74741 3.74631,0.84606 l 3.60587,0.11223 v 3.43305 c 0,3.63313 0.10015,3.95346 1.23597,3.95346 0.64366,0 0.71556,-0.37256 0.71556,-3.7079 z"
           id="path2581"
           transform="matrix(0.26458333,0,0,0.26458333,-13.218359,31.806677)" />
        <path
           style="fill:#ffff00;stroke-width:0.390306"
           d="m 323.7204,457.73121 c 0.1521,-5.2057 0.39858,-9.57527 0.54774,-9.71014 0.33497,-0.30289 42.17668,-0.56962 68.68023,-0.43781 l 19.6208,0.0976 -0.74549,1.46365 c -1.19965,2.35532 -2.00252,5.53605 -2.00252,7.93342 0,2.71513 1.18494,6.7244 2.52368,8.53896 0.54399,0.73734 0.98908,1.39432 0.98908,1.45994 0,0.0656 -20.22527,0.11933 -44.94504,0.11933 h -44.94503 z m 15.08728,5.17185 c 0.76355,-0.21212 1.89978,-0.91957 2.52497,-1.57213 0.98191,-1.02489 1.15718,-1.54862 1.28697,-3.84564 0.14215,-2.51565 0.085,-2.73353 -1.05953,-4.03703 -1.55375,-1.76963 -3.11965,-2.40529 -5.31556,-2.15778 -1.98755,0.22403 -4.33347,1.79679 -4.89909,3.28447 -0.69468,1.82716 -0.43361,4.53444 0.5813,6.02802 1.59063,2.34083 3.92519,3.1212 6.88094,2.30009 z m 20.59553,-0.66472 c 3.77586,-2.79655 3.69104,-7.94813 -0.16729,-10.16014 -3.96952,-2.27576 -8.61021,0.0719 -9.04287,4.5746 -0.36805,3.83043 2.53048,6.8379 6.28286,6.519 1.04346,-0.0887 2.34862,-0.50487 2.9273,-0.93346 z"
           id="path2768"
           transform="matrix(0.26458333,0,0,0.26458333,-13.218359,31.806677)" />
        <path
           style="fill:#ffff00;stroke-width:0.390306"
           d="m 415.76741,465.87482 c -4.593,-5.23114 -4.56601,-13.44689 0.0584,-17.76663 l 1.00492,-0.93872 8.6923,0.27525 c 4.78076,0.15139 8.85695,0.43989 9.0582,0.64111 0.48125,0.48118 0.48125,17.83529 0,18.31032 -0.20125,0.19865 -4.23368,0.48494 -8.96095,0.6362 l -8.59504,0.27501 z m 10.4466,-3.93369 v -3.69377 l 3.80548,-0.11171 c 3.76919,-0.11064 3.80549,-0.12102 3.80549,-1.08747 0,-0.96646 -0.0363,-0.97683 -3.80549,-1.08748 l -3.80548,-0.11171 v -3.72092 c 0,-3.63548 -0.0202,-3.71805 -0.87819,-3.59619 -0.80385,0.11416 -0.88659,0.35599 -0.97745,2.85686 -0.1694,4.66232 0.0194,4.44129 -3.90501,4.57095 -3.34871,0.11065 -3.41154,0.13069 -3.41154,1.08849 0,0.93843 0.10454,0.97956 2.73214,1.07503 4.72089,0.17152 4.48852,-0.0359 4.48852,4.00638 0,3.4788 0.007,3.50531 0.97577,3.50531 0.97208,0 0.97576,-0.014 0.97576,-3.69377 z"
           id="path2846"
           transform="matrix(0.26458333,0,0,0.26458333,-13.218359,31.806677)" />
        <path
           style="fill:#ffffff;stroke-width:0.390306"
           d="m 323.74994,461.69804 c 0.12487,-3.09409 0.32464,-7.39771 0.44393,-9.56359 l 0.21688,-3.93796 14.08156,-0.25783 c 17.00642,-0.31138 73.67069,-0.34468 73.67069,-0.0433 0,0.11799 -0.29082,0.77664 -0.64626,1.46365 -2.33091,4.50526 -2.1959,11.52194 0.30471,15.83719 0.41997,0.72473 0.70399,1.37728 0.63116,1.45011 -0.0728,0.0728 -20.11181,0.25503 -44.53106,0.40489 l -44.39865,0.27247 z m 16.93322,0.46247 c 1.5966,-1.13688 2.0054,-2.19181 2.0054,-5.17507 0,-3.76192 -1.98218,-5.79185 -5.65561,-5.79185 -1.83441,0 -4.32846,1.00863 -5.25521,2.12529 -0.78692,0.94818 -1.13053,3.55817 -0.72115,5.47764 0.26822,1.25758 0.79453,2.10852 1.94954,3.152 1.5211,1.37423 1.67502,1.42345 3.99008,1.27604 1.71989,-0.10951 2.77342,-0.41356 3.68695,-1.06405 z m 18.1576,0.59126 c 2.16606,-0.90504 3.16794,-2.72974 3.16794,-5.76973 0,-2.23798 -0.13688,-2.7496 -0.97577,-3.64741 -1.61515,-1.72859 -2.99581,-2.24403 -5.52152,-2.06133 -3.4617,0.2504 -5.4084,2.42853 -5.40558,6.04822 0.004,4.53287 4.37641,7.25136 8.73493,5.43025 z"
           id="path2922"
           transform="matrix(0.26458333,0,0,0.26458333,-13.218359,31.806677)" />
        <path
           style="fill:#ffff00;stroke-width:0.390306"
           d="m 347.37067,518.91009 -2.12817,-2.15494 7.98918,-7.99632 7.98917,-7.99631 -7.79855,-7.80587 -7.79855,-7.80587 2.14585,-2.14585 2.14584,-2.14584 9.35701,9.73487 c 5.14636,5.35418 9.40365,9.87635 9.46065,10.04925 0.0995,0.30169 -18.38048,20.11367 -18.95464,20.3209 -0.15379,0.0555 -1.23729,-0.86881 -2.40779,-2.05402 z"
           id="path3035"
           transform="matrix(0.26458333,0,0,0.26458333,-13.218359,31.806677)" />
        <path
           style="fill:#ffff00;stroke-width:0.390306"
           d="m 372.74211,517.54559 v -3.12245 h 19.51529 19.51529 v 3.12245 3.12244 H 392.2574 372.74211 Z"
           id="path3074"
           transform="matrix(0.26458333,0,0,0.26458333,-13.218359,31.806677)" />
      </g>
    </g>
  </g>
  <style
     type="text/css"
     id="style9">.st0{fill-rule:evenodd;clip-rule:evenodd;}</style>
  <style
     type="text/css"
     id="style9-2">.st0{fill-rule:evenodd;clip-rule:evenodd;}</style>
</svg>
