<?xml version="1.0" encoding="UTF-8" standalone="no"?>
<!-- Created with Inkscape (http://www.inkscape.org/) -->

<svg
   width="512"
   height="456.16013"
   viewBox="0 0 135.46665 120.69236"
   version="1.1"
   id="svg5"
   xmlns="http://www.w3.org/2000/svg"
   xmlns:svg="http://www.w3.org/2000/svg">
  <defs
     id="defs2">
    <style
       id="style2760">.cls-1,.cls-2{fill-rule:evenodd;}.cls-2{fill:red;}.cls-3{fill:#fff;}</style>
    <style
       id="style2760-9">.cls-1,.cls-2{fill-rule:evenodd;}.cls-2{fill:red;}.cls-3{fill:#fff;}</style>
  </defs>
  <g
     id="layer1"
     transform="translate(-158.41617,-158.22368)"
     style="display:inline">
    <g
       id="g2052"
       transform="matrix(4.1391615,0,0,4.1391615,173.12815,149.77838)"
       style="display:none">
      <path
         class="st0"
         d="m 14.311534,7.9450978 c 0.407459,0 0.735542,0.3307292 0.735542,0.7355417 0,0.4048125 -0.330729,0.7355416 -0.735542,0.7355416 -0.404812,0 -0.738187,-0.3280833 -0.738187,-0.7328958 0,-0.4048125 0.330729,-0.7381875 0.738187,-0.7381875 z m 1.140355,23.5267492 h 0.01587 0.08202 c 0.127,-0.0026 0.150813,-0.01587 0.248709,-0.07937 l 0.09525,-0.06085 c 1.262062,-0.796396 1.862666,-1.973791 2.002896,-3.418416 0.148166,-1.534584 -0.211667,-3.37873 -0.862542,-5.3975 v 0 c -0.0026,-0.0079 -0.0053,-0.01588 -0.0079,-0.02381 L 15.399005,16.56788 c -0.15875,0.06879 -0.314854,0.134938 -0.473604,0.198438 -0.621771,0.259291 -1.262063,0.452437 -1.915584,0.587375 -0.703791,0.150812 -1.410229,0.232833 -2.119312,0.246062 -1.5134167,0.02381 -3.0268333,-0.275166 -4.5428958,-0.899583 L 5.381847,20.499577 c -0.1852083,0.724958 -0.3386667,1.367895 -0.4656667,1.947333 -0.1349375,0.613833 -0.2566458,1.211792 -0.3677708,1.820333 -0.055563,0.298979 -0.087313,0.463021 -0.1190625,0.629709 -0.3518958,1.812395 -0.7249583,3.743854 0.2883958,5.265208 0.2883959,0.433917 0.6614584,0.754062 1.11125,0.968375 0.460375,0.216958 1.0054167,0.330729 1.6298334,0.346604 0.013229,0 0.023813,0 0.037042,0 h 0.7381875 v -6.164792 c 0,-0.312208 0.254,-0.566208 0.5662084,-0.566208 0.3122083,0 0.5662083,0.254 0.5662083,0.566208 v 6.1595 h 3.0400616 v -6.1595 c 0,-0.312208 0.254,-0.566208 0.566209,-0.566208 0.312208,0 0.566208,0.254 0.566208,0.566208 v 6.1595 z M 3.8393262,0.4626811 5.9798053,2.4999728 c 1.5875,-0.6402917 3.1882292,-0.98425 4.8021877,-1.000125 1.61925,-0.013229 3.243791,0.3069167 4.876271,0.9974792 l 2.394479,-2.238375 c 0.227541,-0.2116667 0.582083,-0.2010834 0.79375,0.026458 0.100541,0.1084791 0.150812,0.2460625 0.150812,0.381 v 0 l 0.0291,4.778375 c 0.650875,1.1377083 1.037167,2.1986875 1.198563,3.1935208 l 0.960437,-0.312208 c 0.296334,-0.09525 0.613834,0.066146 0.71173,0.3624792 0.09525,0.2963333 -0.06615,0.6138333 -0.36248,0.7117291 l -1.219729,0.396875 c 0,0.026458 0,0.052917 -0.0026,0.076729 -0.02117,0.8440209 -0.211666,1.6298329 -0.53975,2.3680209 l 0.772584,0.103187 c 0.309562,0.03969 0.526521,0.322792 0.486833,0.632354 -0.03973,0.309563 -0.322834,0.526521 -0.632396,0.486834 L 19.185159,13.30291 c -0.07673,0.116417 -0.15875,0.230187 -0.243416,0.343958 -0.722313,0.971021 -1.584854,1.751542 -2.532063,2.352146 l 1.698625,6.172729 v 0 c 0.693209,2.153709 1.074209,4.143375 0.910167,5.847292 -0.129646,1.357312 -0.595313,2.529417 -1.505479,3.452812 h 2.767541 0.02911 v 0.0026 c 1.846791,0 3.280833,0 4.683125,-1.359958 0.814916,-0.788458 1.156229,-1.799167 1.127125,-2.804583 -0.01588,-0.550334 -0.145521,-1.103313 -0.367771,-1.621896 -0.224896,-0.521229 -0.542396,-1.002771 -0.936625,-1.410229 -0.772584,-0.796396 -1.844146,-1.31498 -3.090334,-1.277938 -0.309562,0.0079 -0.568854,-0.235479 -0.579437,-0.547687 -0.0079,-0.309563 0.235479,-0.568855 0.547687,-0.579438 1.5875,-0.04763 2.950105,0.605896 3.929063,1.616604 0.494771,0.510646 0.889,1.108604 1.164167,1.751542 0.275166,0.642938 0.436562,1.338792 0.455083,2.037292 0.03969,1.304395 -0.404813,2.614083 -1.465792,3.643312 -1.733021,1.677458 -3.362854,1.677458 -5.468937,1.677458 v 0.0026 h -0.0291 -4.704292 -0.05292 -2.413 c -0.04498,0.01058 -0.0926,0.01852 -0.140229,0.01852 -0.04763,0 -0.09525,-0.0053 -0.140229,-0.01852 H 8.937847 c -0.044979,0.01058 -0.092604,0.01852 -0.1402292,0.01852 -0.047625,0 -0.09525,-0.0053 -0.1402291,-0.01852 H 7.493222 c -0.021167,0 -0.039687,0 -0.060854,-0.0026 C 6.6465553,32.580456 5.9480553,32.432285 5.3448053,32.146535 4.7071595,31.84491 4.1806387,31.392473 3.7731803,30.781285 2.5058262,28.876285 2.9238678,26.714639 3.318097,24.682639 c 0.050271,-0.254 0.097896,-0.505354 0.1190625,-0.619125 0.111125,-0.608541 0.2354792,-1.219729 0.3783542,-1.860021 0.1481666,-0.672041 0.3042708,-1.325562 0.4709583,-1.981729 l 1.0345208,-4.066646 c -1.143,-0.669396 -2.111375,-1.563687 -2.7860625,-2.651125 -0.037042,-0.06085 -0.074083,-0.121708 -0.1084791,-0.179916 l -0.9128125,0.11377 C 1.2040762,13.474889 0.92361779,13.255285 0.88393029,12.945722 0.84688863,12.63616 1.0664928,12.355702 1.3760553,12.316014 l 0.5423959,-0.06615 C 1.6327012,11.477285 1.4845345,10.633264 1.4977637,9.7283895 L 0.49763863,9.402952 C 0.20130529,9.307702 0.03990946,8.9875561 0.13515946,8.6912228 0.23040946,8.3948895 0.55055529,8.2334936 0.84688863,8.3287436 L 1.6009512,8.5748061 C 1.7597012,7.593202 2.1036595,6.5507436 2.6645762,5.4527228 L 2.8868262,0.846327 C 2.9027012,0.5367645 3.1646387,0.2959936 3.476847,0.3092228 c 0.142875,0.00529 0.2672292,0.0635 0.3624792,0.1534583 z M 5.4691595,3.5715353 3.953097,2.1295561 3.7837637,5.624702 v 0 c -0.00265,0.079375 -0.023813,0.15875 -0.0635,0.2328333 -0.5715,1.0927292 -0.9022292,2.1193125 -1.0292292,3.0691667 l 3.540125,1.148292 c 0.2963333,0.09525 0.4577292,0.415395 0.3624792,0.711728 -0.09525,0.296334 -0.4153959,0.45773 -0.7117292,0.36248 L 2.635472,10.093514 c 0.029104,0.724958 0.1852083,1.397 0.4418542,2.008188 l 2.9130625,-0.36248 c 0.3095625,-0.03704 0.5900208,0.182563 0.6297083,0.492125 0.037042,0.309563 -0.1825625,0.592667 -0.492125,0.629709 l -2.460625,0.306916 c 0.5900208,0.846667 1.4049375,1.547813 2.3521458,2.082271 1.0609792,0.597959 2.2886459,0.98425 3.571875,1.132417 1.1350622,0.132292 2.3071662,0.07408 3.4369372,-0.187854 0.433917,-0.105834 0.867834,-0.240771 1.30175,-0.404813 1.362604,-0.537104 2.608792,-1.410229 3.585104,-2.661708 L 15.899034,12.85841 c -0.309562,-0.03969 -0.52652,-0.322792 -0.486833,-0.632354 0.03969,-0.309563 0.322792,-0.526521 0.632354,-0.486834 l 2.550584,0.341313 c 0.312208,-0.60325 0.510645,-1.23825 0.5715,-1.915583 l -3.021542,0.978958 c -0.296333,0.09525 -0.613833,-0.06615 -0.711729,-0.362479 -0.09525,-0.296334 0.06615,-0.613834 0.362479,-0.711729 L 19.137534,8.9849103 C 19.01318,8.0403478 18.640118,7.0084728 17.978659,5.8760561 v 0 C 17.931029,5.7940351 17.901929,5.6961395 17.901929,5.592952 L 17.880759,1.9602228 16.179488,3.5530145 C 16.018092,3.7223478 15.761446,3.7779103 15.53655,3.6773686 13.943759,2.9524103 12.36155,2.6163895 10.789925,2.6296186 9.2183003,2.6428478 7.6493212,3.0079728 6.080342,3.6826603 v 0 C 5.8792637,3.767327 5.6384928,3.7302853 5.4691595,3.5715353 Z m 4.5428965,6.9479577 c -0.312209,0 -0.566209,-0.254 -0.566209,-0.5662077 0,-0.3122083 0.254,-0.5662083 0.566209,-0.5662083 h 1.748895 c 0.312208,0 0.566208,0.254 0.566208,0.5662083 0,0.3122077 -0.254,0.5662077 -0.566208,0.5662077 h -0.3175 c 0.02117,0.330729 0.07938,0.621771 0.166688,0.867834 0.129645,0.370416 0.325437,0.640291 0.560916,0.81227 0.230188,0.169334 0.505354,0.256646 0.801688,0.261938 0.227541,0.0053 0.468312,-0.03704 0.717021,-0.124354 0.293687,-0.103188 0.616479,0.05027 0.719666,0.343958 0.103188,0.293688 -0.05027,0.616479 -0.343958,0.719667 -0.373062,0.132291 -0.748771,0.195791 -1.116542,0.187854 -0.529166,-0.01058 -1.023937,-0.166688 -1.444625,-0.478896 -0.20902,-0.156104 -0.399521,-0.346604 -0.563562,-0.574146 -0.145521,0.235479 -0.3175,0.420688 -0.515938,0.568854 -0.6588122,0.48948 -1.4948955,0.492125 -2.3997705,0.365125 -0.3095625,-0.04233 -0.523875,-0.328083 -0.4815417,-0.635 0.042333,-0.309562 0.3280834,-0.523875 0.635,-0.481541 0.6455834,0.08996 1.2197292,0.108479 1.5689792,-0.153459 0.3175,-0.238125 0.523875,-0.740833 0.552979,-1.680104 z M 7.5196803,7.9450978 c 0.4074584,0 0.7355417,0.3307292 0.7355417,0.7355417 0,0.4048125 -0.3307292,0.7355416 -0.7355417,0.7355416 -0.4074583,0 -0.7355416,-0.3307291 -0.7355416,-0.7355416 0,-0.4048125 0.3280833,-0.7355417 0.7355416,-0.7355417 z"
         id="path5032" />
      <path
         style="display:inline;fill:#ffb380;stroke-width:0.40723"
         d="m 25.623123,118.09262 c -7.13413,-1.20747 -10.633899,-7.70758 -9.348909,-17.3637 0.989215,-7.433504 3.814485,-20.230238 7.780662,-35.241606 l 0.396872,-1.502098 2.182741,0.750973 c 4.856265,1.6708 8.443889,2.229963 14.088557,2.195827 5.874854,-0.03553 9.241964,-0.597144 14.055581,-2.344393 1.548045,-0.56191 2.878076,-0.958208 2.955621,-0.880661 0.11999,0.11999 5.005294,17.442678 7.471942,26.494586 0.997723,3.661366 1.981359,9.979922 1.984434,12.747372 0.0062,5.56076 -2.254505,10.74548 -6.019502,13.80525 l -2.153215,1.74989 H 55.368088 51.718269 V 106.5686 c 0,-12.997379 -0.01835,-13.105571 -2.299155,-13.553373 -0.981578,-0.192718 -1.481408,-0.05119 -2.13796,0.60536 -0.832292,0.832292 -0.856881,1.201615 -0.856881,12.870183 v 12.01329 h -5.293996 -5.293996 v -12.19382 c 0,-12.139104 -0.0041,-12.196664 -0.905072,-12.827757 -1.214164,-0.850433 -2.033714,-0.798511 -3.315929,0.21008 l -1.072995,0.844018 v 11.983739 11.98374 l -1.527114,-0.0479 c -0.839913,-0.0263 -2.366335,-0.18994 -3.392048,-0.36355 z"
         id="path5231"
         transform="scale(0.26458333)" />
      <path
         style="display:inline;fill:#e3dbdb;stroke-width:0.40723"
         d="M 34.274109,61.060315 C 28.020027,59.948323 21.38915,56.691465 17.352616,52.749059 L 14.863912,50.318386 19.40913,49.69483 c 5.777444,-0.792608 7.217549,-1.916703 5.814398,-4.538514 -0.736208,-1.375618 -1.958461,-1.501263 -7.635894,-0.784956 -4.916201,0.620265 -5.451935,0.624447 -5.754371,0.04493 -0.388626,-0.744674 -1.321284,-4.974662 -1.137395,-5.158552 0.06862,-0.06862 2.683789,0.689514 5.81148,1.684748 3.127692,0.995234 6.099033,1.811136 6.602981,1.813116 2.120337,0.0083 3.312478,-2.894187 1.807042,-4.399623 -0.405982,-0.405982 -3.704549,-1.69511 -7.330149,-2.86473 -5.259476,-1.696709 -6.591999,-2.273425 -6.591999,-2.853013 0,-1.185498 1.186244,-4.826491 2.677557,-8.21835 1.199957,-2.729196 1.40092,-3.64644 1.438945,-6.567715 0.02431,-1.867518 0.16175,-4.457111 0.305423,-5.754653 l 0.261225,-2.3591656 2.768271,2.4609736 c 1.52255,1.353536 3.080207,2.460919 3.461459,2.460852 0.381253,-6.7e-5 2.489383,-0.642169 4.684732,-1.426893 9.863656,-3.525746 18.828722,-3.5169178 28.746857,0.02831 2.151785,0.769154 4.232273,1.398517 4.623304,1.398584 0.391031,6.7e-5 2.010171,-1.192158 3.598089,-2.649389 1.587917,-1.457231 3.054704,-2.5459386 3.259533,-2.4193495 0.204825,0.1265907 0.372408,2.9727285 0.372408,6.3247535 v 6.094589 l 1.378272,2.73864 c 1.624043,3.226984 3.253287,8.260067 2.804938,8.665037 -0.172987,0.156248 -2.971699,1.155451 -6.219362,2.22045 -3.247663,1.064999 -6.225536,2.215781 -6.617495,2.557292 -0.938634,0.817824 -0.920402,3.031068 0.03205,3.893041 1.078672,0.976187 1.973907,0.860672 7.655823,-0.987855 2.80941,-0.914 5.198346,-1.57149 5.308746,-1.46109 0.355471,0.355474 -1.244647,4.838598 -1.803542,5.053067 -0.297018,0.113975 -2.59337,-0.07083 -5.103005,-0.410669 -5.685369,-0.769887 -6.538521,-0.513192 -6.723176,2.022854 -0.157789,2.167088 0.72022,2.807236 4.399971,3.207976 4.508819,0.491026 4.516996,0.508623 1.511924,3.252134 -4.125517,3.76643 -8.500406,6.122906 -14.364727,7.737355 -2.871575,0.790548 -11.99302,1.127841 -15.179349,0.561306 z m 17.054843,-9.345442 c 2.650309,-0.502621 3.647161,-1.336482 3.647161,-3.050833 0,-2.139208 -1.083559,-2.770227 -4.186338,-2.437948 -3.355785,0.359374 -4.919788,-0.363499 -6.017482,-2.781246 -1.079306,-2.377247 -0.996985,-2.899878 0.527705,-3.350239 1.720428,-0.508178 2.391076,-2.192985 1.503462,-3.77701 -0.595344,-1.062445 -0.727946,-1.095393 -4.873319,-1.210903 -2.343728,-0.06531 -4.679876,-0.01444 -5.191441,0.113042 -2.321171,0.57843 -1.990507,4.491593 0.420285,4.973752 1.15883,0.231766 1.195387,0.306221 0.939028,1.912471 -0.541424,3.392355 -2.207456,4.564544 -5.847472,4.11417 -2.805955,-0.347177 -4.151639,0.42279 -4.151639,2.375465 0,2.323872 0.755261,2.87968 4.145717,3.050888 3.692813,0.186479 6.029357,-0.405011 7.823831,-1.980579 1.186232,-1.041526 1.438486,-1.12215 1.87297,-0.59863 1.202326,1.448713 3.309413,2.359431 6.97246,3.013606 0.137413,0.02456 1.224195,-0.140161 2.415072,-0.366006 z M 30.105929,35.647727 c 3.299137,-1.706051 1.257869,-7.026751 -2.35038,-6.126418 -1.798444,0.44875 -2.50726,1.380067 -2.50726,3.294302 0,1.394564 0.212951,1.907372 1.072995,2.583883 1.267752,0.997214 2.216002,1.059409 3.784645,0.248233 z m 26.600913,-0.658636 c 0.818619,-1.001613 0.918085,-3.127425 0.190665,-4.074865 -1.381993,-1.799995 -4.204556,-1.930617 -5.382348,-0.249084 -1.030917,1.471841 -0.788016,3.75137 0.508406,4.771134 1.375079,1.081637 3.608034,0.868422 4.683277,-0.447185 z"
         id="path5640"
         transform="scale(0.26458333)" />
      <path
         style="display:inline;fill:#e3dbdb;stroke-width:0.40723"
         d="m 27.399791,118.03791 c -5.438331,-0.48582 -8.785534,-3.08726 -10.305933,-8.00974 -1.719769,-5.56796 -0.835264,-11.923882 4.958831,-35.633403 2.120013,-8.675124 2.564195,-10.067558 3.138012,-9.837123 2.615188,1.050212 9.03234,2.294526 12.885347,2.498525 6.539581,0.34624 11.286833,-0.395873 18.984164,-2.967693 0.454262,-0.151778 0.720668,0.07473 0.858092,0.729564 0.109614,0.522324 1.870483,6.905425 3.913041,14.18467 4.101572,14.617124 4.954451,18.751373 4.954451,24.01619 0,5.73024 -2.102327,10.50212 -6.10232,13.8511 -1.946444,1.62966 -1.961157,1.63406 -5.458456,1.63406 h -3.506751 v -11.92268 c 0,-13.363214 -0.07017,-13.732834 -2.606974,-13.732834 -2.664934,0 -2.687022,0.111569 -2.687022,13.572474 v 12.08304 h -5.293996 -5.293996 v -12.18782 c 0,-10.536869 -0.08669,-12.274512 -0.639934,-12.827761 -0.84884,-0.84884 -2.72598,-0.812878 -3.795853,0.07272 -0.836449,0.692379 -0.8638,1.054425 -0.961383,12.725951 l -0.100441,12.0133 z"
         id="path5679"
         transform="scale(0.26458333)" />
    </g>
    <g
       id="layer1-7-6"
       transform="matrix(2.0748724,0,0,2.0748724,79.039096,-86.604035)"
       style="display:inline">
      <path
         class="st0"
         d="m 72.351147,148.64314 h 29.614813 c 0.7964,0 1.44727,0.65087 1.44727,1.44727 v 24.49512 c 0,0.7964 -0.65087,1.44727 -1.44727,1.44727 H 72.351147 c -0.796395,0 -1.44727,-0.65087 -1.44727,-1.44727 v -24.49512 c 0,-0.7964 0.650875,-1.44727 1.44727,-1.44727 z m 6.977063,10.19968 4.706938,4.87363 0.566208,0.56356 -0.560917,0.5715 -4.754562,5.04031 -1.341438,-1.32291 4.193646,-4.27302 -4.140729,-4.11692 z m 16.472959,10.81088 h -10.42723 v -1.80975 h 10.42723 z M 81.008314,151.24399 c 0.844021,0 1.529292,0.68527 1.529292,1.52929 0,0.84402 -0.685271,1.52929 -1.529292,1.52929 -0.844021,0 -1.529292,-0.68527 -1.529292,-1.52929 0,-0.84402 0.685271,-1.52929 1.529292,-1.52929 z m -5.090583,0 c 0.844021,0 1.529291,0.68527 1.529291,1.52929 0,0.84402 -0.68527,1.52929 -1.529291,1.52929 -0.844021,0 -1.529292,-0.68527 -1.529292,-1.52929 0,-0.84402 0.682625,-1.52929 1.529292,-1.52929 z m -3.032125,-1.16946 h 28.551184 c 0.30427,0 0.55298,0.24871 0.55298,0.55298 v 4.84717 H 72.332627 v -4.84717 c 0,-0.30427 0.248708,-0.55298 0.552979,-0.55298 z"
         id="path11"
         style="stroke-width:0.264583" />
      <path
         d="m 96.47566,149.83343 c 0.79355,-0.79348 1.83362,-1.19029 2.87363,-1.19029 1.04002,0 2.08016,0.39681 2.87371,1.19029 0.79348,0.79355 1.19023,1.83363 1.19023,2.87364 0,1.04014 -0.39675,2.08016 -1.19023,2.87371 -0.79355,0.79348 -1.83369,1.19029 -2.87371,1.19029 -1.04001,0 -2.08015,-0.39681 -2.87363,-1.19029 -0.79356,-0.79349 -1.1903,-1.83357 -1.1903,-2.87371 0,-1.04001 0.39674,-2.08008 1.1903,-2.87364 z m 2.62341,0.87227 c 0,-0.12171 0.0987,-0.2204 0.22046,-0.2204 0.12177,0 0.22046,0.0987 0.22046,0.2204 v 1.81127 h 1.81127 c 0.12171,0 0.2204,0.0987 0.2204,0.2204 0,0.12177 -0.0987,0.22046 -0.2204,0.22046 h -1.81133 v 1.81127 c 0,0.12171 -0.0987,0.2204 -0.22047,0.2204 -0.12177,0 -0.22046,-0.0987 -0.22046,-0.2204 v -1.81134 h -1.81121 c -0.1217,0 -0.22046,-0.0987 -0.22046,-0.22046 0,-0.12171 0.0987,-0.2204 0.22046,-0.2204 h 1.81128 z m 0.25022,-1.6217 c -0.92723,0 -1.85439,0.35375 -2.56189,1.06124 -0.70743,0.70743 -1.06118,1.63467 -1.06118,2.56183 0,0.92723 0.35375,1.85447 1.06118,2.5619 0.7075,0.70749 1.63466,1.06124 2.56189,1.06124 0.92724,0 1.8544,-0.35375 2.5619,-1.06124 0.70743,-0.70743 1.06124,-1.63473 1.06124,-2.5619 0,-0.92716 -0.35381,-1.8544 -1.06124,-2.56183 -0.70743,-0.70749 -1.63466,-1.06124 -2.5619,-1.06124 z"
         id="path23"
         style="stroke-width:0.0661457" />
      <path
         style="fill:#800080;stroke-width:0.390306"
         d="m 347.17277,519.10246 -2.3217,-2.34618 7.98974,-7.99688 7.98974,-7.99688 -7.79455,-7.80186 -7.79454,-7.80185 2.29034,-2.3145 2.29035,-2.31449 6.47915,6.70113 c 3.56353,3.68562 7.95248,8.22829 9.75322,10.09483 l 3.27406,3.39369 -9.70968,10.32897 c -5.34033,5.68093 -9.803,10.345 -9.91706,10.36458 -0.11405,0.0196 -1.25213,-1.02016 -2.52907,-2.31056 z"
         id="path1624"
         transform="matrix(0.26458333,0,0,0.26458333,-13.218359,31.806677)" />
      <path
         style="fill:#800080;stroke-width:0.390306"
         d="m 372.74211,517.54559 v -3.12245 h 19.51529 19.51529 v 3.12245 3.12244 H 392.2574 372.74211 Z"
         id="path1663"
         transform="matrix(0.26458333,0,0,0.26458333,-13.218359,31.806677)" />
      <path
         style="fill:#800080;stroke-width:0.390306"
         d="m 323.56357,457.7117 c 0,-6.85638 0.12978,-9.61422 0.46836,-9.9528 0.35878,-0.35878 10.82304,-0.46837 44.72255,-0.46837 24.3398,0 44.19463,0.13173 44.12184,0.29273 -0.0728,0.161 -0.5938,1.17092 -1.1578,2.24426 -2.65524,5.05306 -2.22749,11.76653 1.02107,16.0256 l 1.02436,1.34301 h -45.10019 -45.10019 z m 16.43925,4.58161 c 2.62005,-1.35489 3.56434,-5.76603 1.79977,-8.40744 -1.02453,-1.53362 -3.08309,-2.6908 -4.78834,-2.69168 -1.83944,-9.3e-4 -4.50962,1.56203 -5.32296,3.11575 -2.24502,4.28871 1.24614,9.44774 5.9098,8.73315 0.74392,-0.11399 1.8247,-0.45139 2.40173,-0.74978 z m 18.53174,0.25606 c 3.97504,-1.80525 4.77141,-6.88971 1.52551,-9.73965 -2.53524,-2.22597 -6.12083,-1.99936 -8.33903,0.52703 -2.23989,2.55109 -1.99766,6.26211 0.54126,8.29208 2.23258,1.78504 3.84696,2.02198 6.27226,0.92054 z"
         id="path2505"
         transform="matrix(0.26458333,0,0,0.26458333,-13.218359,31.806677)" />
      <path
         style="fill:#f9f9f9;stroke-width:0.390306"
         d="m 415.12471,465.50723 c -4.10253,-5.00659 -4.06585,-12.71766 0.0815,-17.14336 l 1.00584,-1.07334 h 9.02111 c 6.49601,0 9.1522,0.1311 9.48947,0.46837 0.66484,0.66484 0.66484,18.30402 0,18.96886 -0.33682,0.33682 -2.96052,0.46837 -9.34121,0.46837 h -8.87284 z m 11.0893,-3.58023 v -3.70791 h 3.28568 c 3.76335,0 4.52044,-0.1961 4.52044,-1.17091 0,-0.97481 -0.75709,-1.17092 -4.52044,-1.17092 h -3.28568 v -3.73505 c 0,-3.65014 -0.02,-3.73222 -0.87819,-3.61033 -0.82883,0.11771 -0.88449,0.32762 -0.99041,3.73505 l -0.11222,3.61033 -3.20538,0.006 c -3.50133,0.007 -4.33123,0.29009 -4.11751,1.40687 0.12346,0.64508 0.5766,0.74741 3.74631,0.84606 l 3.60587,0.11223 v 3.43305 c 0,3.63313 0.10015,3.95346 1.23597,3.95346 0.64366,0 0.71556,-0.37256 0.71556,-3.7079 z"
         id="path2581"
         transform="matrix(0.26458333,0,0,0.26458333,-13.218359,31.806677)" />
      <path
         style="fill:#ffff00;stroke-width:0.390306"
         d="m 323.7204,457.73121 c 0.1521,-5.2057 0.39858,-9.57527 0.54774,-9.71014 0.33497,-0.30289 42.17668,-0.56962 68.68023,-0.43781 l 19.6208,0.0976 -0.74549,1.46365 c -1.19965,2.35532 -2.00252,5.53605 -2.00252,7.93342 0,2.71513 1.18494,6.7244 2.52368,8.53896 0.54399,0.73734 0.98908,1.39432 0.98908,1.45994 0,0.0656 -20.22527,0.11933 -44.94504,0.11933 h -44.94503 z m 15.08728,5.17185 c 0.76355,-0.21212 1.89978,-0.91957 2.52497,-1.57213 0.98191,-1.02489 1.15718,-1.54862 1.28697,-3.84564 0.14215,-2.51565 0.085,-2.73353 -1.05953,-4.03703 -1.55375,-1.76963 -3.11965,-2.40529 -5.31556,-2.15778 -1.98755,0.22403 -4.33347,1.79679 -4.89909,3.28447 -0.69468,1.82716 -0.43361,4.53444 0.5813,6.02802 1.59063,2.34083 3.92519,3.1212 6.88094,2.30009 z m 20.59553,-0.66472 c 3.77586,-2.79655 3.69104,-7.94813 -0.16729,-10.16014 -3.96952,-2.27576 -8.61021,0.0719 -9.04287,4.5746 -0.36805,3.83043 2.53048,6.8379 6.28286,6.519 1.04346,-0.0887 2.34862,-0.50487 2.9273,-0.93346 z"
         id="path2768"
         transform="matrix(0.26458333,0,0,0.26458333,-13.218359,31.806677)" />
      <path
         style="fill:#ffff00;stroke-width:0.390306"
         d="m 415.76741,465.87482 c -4.593,-5.23114 -4.56601,-13.44689 0.0584,-17.76663 l 1.00492,-0.93872 8.6923,0.27525 c 4.78076,0.15139 8.85695,0.43989 9.0582,0.64111 0.48125,0.48118 0.48125,17.83529 0,18.31032 -0.20125,0.19865 -4.23368,0.48494 -8.96095,0.6362 l -8.59504,0.27501 z m 10.4466,-3.93369 v -3.69377 l 3.80548,-0.11171 c 3.76919,-0.11064 3.80549,-0.12102 3.80549,-1.08747 0,-0.96646 -0.0363,-0.97683 -3.80549,-1.08748 l -3.80548,-0.11171 v -3.72092 c 0,-3.63548 -0.0202,-3.71805 -0.87819,-3.59619 -0.80385,0.11416 -0.88659,0.35599 -0.97745,2.85686 -0.1694,4.66232 0.0194,4.44129 -3.90501,4.57095 -3.34871,0.11065 -3.41154,0.13069 -3.41154,1.08849 0,0.93843 0.10454,0.97956 2.73214,1.07503 4.72089,0.17152 4.48852,-0.0359 4.48852,4.00638 0,3.4788 0.007,3.50531 0.97577,3.50531 0.97208,0 0.97576,-0.014 0.97576,-3.69377 z"
         id="path2846"
         transform="matrix(0.26458333,0,0,0.26458333,-13.218359,31.806677)" />
      <path
         style="fill:#ffffff;stroke-width:0.390306"
         d="m 323.74994,461.69804 c 0.12487,-3.09409 0.32464,-7.39771 0.44393,-9.56359 l 0.21688,-3.93796 14.08156,-0.25783 c 17.00642,-0.31138 73.67069,-0.34468 73.67069,-0.0433 0,0.11799 -0.29082,0.77664 -0.64626,1.46365 -2.33091,4.50526 -2.1959,11.52194 0.30471,15.83719 0.41997,0.72473 0.70399,1.37728 0.63116,1.45011 -0.0728,0.0728 -20.11181,0.25503 -44.53106,0.40489 l -44.39865,0.27247 z m 16.93322,0.46247 c 1.5966,-1.13688 2.0054,-2.19181 2.0054,-5.17507 0,-3.76192 -1.98218,-5.79185 -5.65561,-5.79185 -1.83441,0 -4.32846,1.00863 -5.25521,2.12529 -0.78692,0.94818 -1.13053,3.55817 -0.72115,5.47764 0.26822,1.25758 0.79453,2.10852 1.94954,3.152 1.5211,1.37423 1.67502,1.42345 3.99008,1.27604 1.71989,-0.10951 2.77342,-0.41356 3.68695,-1.06405 z m 18.1576,0.59126 c 2.16606,-0.90504 3.16794,-2.72974 3.16794,-5.76973 0,-2.23798 -0.13688,-2.7496 -0.97577,-3.64741 -1.61515,-1.72859 -2.99581,-2.24403 -5.52152,-2.06133 -3.4617,0.2504 -5.4084,2.42853 -5.40558,6.04822 0.004,4.53287 4.37641,7.25136 8.73493,5.43025 z"
         id="path2922"
         transform="matrix(0.26458333,0,0,0.26458333,-13.218359,31.806677)" />
      <path
         style="fill:#ffff00;stroke-width:0.390306"
         d="m 347.37067,518.91009 -2.12817,-2.15494 7.98918,-7.99632 7.98917,-7.99631 -7.79855,-7.80587 -7.79855,-7.80587 2.14585,-2.14585 2.14584,-2.14584 9.35701,9.73487 c 5.14636,5.35418 9.40365,9.87635 9.46065,10.04925 0.0995,0.30169 -18.38048,20.11367 -18.95464,20.3209 -0.15379,0.0555 -1.23729,-0.86881 -2.40779,-2.05402 z"
         id="path3035"
         transform="matrix(0.26458333,0,0,0.26458333,-13.218359,31.806677)" />
      <path
         style="fill:#ffff00;stroke-width:0.390306"
         d="m 372.74211,517.54559 v -3.12245 h 19.51529 19.51529 v 3.12245 3.12244 H 392.2574 372.74211 Z"
         id="path3074"
         transform="matrix(0.26458333,0,0,0.26458333,-13.218359,31.806677)" />
    </g>
    <g
       id="g1435"
       transform="matrix(2.0748724,0,0,2.0748724,-125.73366,-130.99558)"
       style="display:inline">
      <path
         d="m 157.31568,165.29134 c -0.95779,1.06098 -2.0611,2.11403 -3.30994,3.15913 0.33867,-0.045 0.67734,-0.10054 1.00807,-0.16404 0.90487,-0.18256 1.77535,-0.44979 2.61673,-0.81492 0.21695,-0.0926 0.42862,-0.1905 0.63764,-0.29104 0.15611,0.20108 0.33073,0.37571 0.51858,0.52387 0.20373,0.1614 0.42069,0.2884 0.64823,0.38365 -0.41804,0.2249 -0.84666,0.42863 -1.28587,0.61913 -0.93398,0.40216 -1.89442,0.69585 -2.88396,0.89693 -0.98954,0.20109 -2.01348,0.30163 -3.06652,0.30163 -1.05304,0 -2.06904,-0.10054 -3.06652,-0.30163 -0.97896,-0.19314 -1.92088,-0.48418 -2.84692,-0.87841 -0.008,0 -0.0265,-0.008 -0.037,-0.0185 -0.91546,-0.39423 -1.78594,-0.87048 -2.59821,-1.41023 -0.81491,-0.53975 -1.56633,-1.16152 -2.2516,-1.84944 -0.69586,-0.68527 -1.30969,-1.43669 -1.84944,-2.25161 -0.55033,-0.81491 -1.016,-1.68539 -1.41023,-2.5982 -0.40217,-0.93398 -0.69585,-1.89442 -0.89694,-2.88396 -0.19314,-0.9869 -0.29368,-2.01348 -0.29368,-3.06652 0,-1.05304 0.10054,-2.06904 0.30162,-3.06652 0.19315,-0.97896 0.48419,-1.92088 0.87842,-2.84692 0,-0.008 0.008,-0.0265 0.0185,-0.037 0.39423,-0.92339 0.87048,-1.78594 1.41023,-2.59821 0.53975,-0.81491 1.16152,-1.56633 1.84943,-2.2516 0.68528,-0.69586 1.43669,-1.30969 2.25161,-1.84944 0.81492,-0.55033 1.68275,-1.016 2.59821,-1.41023 0.93398,-0.40216 1.89441,-0.69585 2.88396,-0.89694 0.98689,-0.19843 2.01348,-0.29897 3.06387,-0.29897 1.05304,0 2.06904,0.10054 3.06652,0.30162 0.97896,0.19315 1.92088,0.48419 2.84692,0.87842 0.008,0 0.0265,0.008 0.037,0.0185 0.91546,0.39423 1.78594,0.87048 2.59821,1.41023 0.81492,0.53975 1.56633,1.16152 2.2516,1.84943 0.69586,0.68528 1.30969,1.43669 1.84944,2.25161 0.55033,0.81492 1.016,1.68539 1.41023,2.59821 0.40217,0.93398 0.69585,1.89441 0.89694,2.88396 0.11377,0.56091 0.19579,1.13241 0.24606,1.7145 l -1.38377,-0.36778 c -0.0423,-0.36512 -0.0979,-0.72495 -0.16933,-1.08214 -0.18257,-0.90488 -0.4498,-1.77536 -0.81492,-2.61673 -0.22754,-0.53975 -0.48419,-1.05304 -0.76994,-1.54781 v 0 h -4.46617 c 0.79375,1.35731 1.36525,2.70668 1.71186,4.05341 l -1.50283,-0.39952 c -0.39159,-1.2065 -0.98161,-2.42358 -1.77536,-3.65389 h -5.3631 v 2.48443 c -0.0953,0.0556 -0.1905,0.12171 -0.28311,0.1958 v 0 c -0.0741,0.0582 -0.14552,0.1217 -0.21166,0.18785 -0.09,0.0926 -0.17463,0.1905 -0.24607,0.29633 -0.11641,0.16934 -0.20902,0.35719 -0.28045,0.55827 -0.0714,0.20373 -0.11378,0.40746 -0.12965,0.6059 -0.0132,0.16933 -0.008,0.34396 0.0185,0.51594 0.0212,0.14287 0.0529,0.2831 0.10054,0.42069 l 0.0132,0.037 c 0.0106,0.0291 0.0212,0.0582 0.0318,0.0847 0.0159,0.045 0.0291,0.0714 0.0344,0.0847 l 0.005,-0.003 0.96044,2.16164 h -0.0159 v 6.29708 h 2.80988 l 0.59266,1.33615 H 152.873 v 4.70429 c 1.49489,-1.22767 2.77812,-2.46592 3.84704,-3.70681 z m 10.0965,0.0212 c -0.09,0.09 -0.19579,0.15875 -0.30692,0.20902 -0.11641,0.0529 -0.24077,0.0847 -0.36512,0.0953 -0.13494,0.0106 -0.27252,-0.003 -0.40481,-0.045 -0.127,-0.0397 -0.24871,-0.10583 -0.35719,-0.19579 l -2.93423,-2.48973 -1.00806,2.47386 c -0.0847,0.20637 -0.18521,0.39687 -0.29898,0.56885 -0.11642,0.17463 -0.24606,0.32544 -0.381,0.4445 -0.10848,0.0952 -0.22754,0.17727 -0.3519,0.23813 -0.12435,0.0609 -0.25135,0.10054 -0.38364,0.11906 -0.15346,0.0212 -0.30692,0.0106 -0.45509,-0.0317 -0.14287,-0.0423 -0.28045,-0.11113 -0.41275,-0.21431 -0.10583,-0.082 -0.20373,-0.18786 -0.29633,-0.31486 -0.0847,-0.11642 -0.1614,-0.254 -0.23283,-0.41275 -1.91029,-4.30477 -4.18836,-8.93762 -5.89227,-13.2715 -0.0212,-0.0582 -0.0371,-0.11641 -0.045,-0.17727 -0.008,-0.0608 -0.0106,-0.12171 -0.005,-0.18256 0.005,-0.0714 0.0212,-0.14023 0.045,-0.20902 0.0238,-0.0662 0.0556,-0.13229 0.0953,-0.1905 0.0212,-0.0291 0.0423,-0.0582 0.0688,-0.082 0.0212,-0.0212 0.045,-0.0423 0.0714,-0.0608 0.0476,-0.037 0.0979,-0.0688 0.15082,-0.0953 l 0.0132,-0.005 c 0.0503,-0.0238 0.10318,-0.0423 0.15345,-0.0529 l 0.0238,-0.005 c 0.0476,-0.0106 0.0952,-0.0159 0.14287,-0.0185 0.0556,-0.003 0.10848,0.003 0.1614,0.0106 0.0185,0.003 0.037,0.005 0.0556,0.008 4.66725,1.15887 9.36096,2.48179 14.01762,3.7174 0.16669,0.045 0.31486,0.10054 0.4445,0.16404 0.14023,0.0714 0.2593,0.15081 0.35719,0.24077 0.12171,0.11112 0.21431,0.23812 0.27781,0.37306 0.0662,0.14023 0.10055,0.29104 0.10319,0.44715 v 0.003 c 0.003,0.13229 -0.0159,0.26458 -0.0556,0.39687 -0.0397,0.13229 -0.10054,0.25929 -0.17992,0.38365 -0.0979,0.15346 -0.22489,0.30691 -0.37835,0.44714 -0.14817,0.13759 -0.32279,0.26723 -0.51594,0.3863 -0.76464,0.44979 -1.52664,0.92604 -2.286,1.38641 l 2.92365,2.5056 c 0.10583,0.0926 0.1905,0.20109 0.24871,0.32015 l 0.008,0.0212 c 0.0556,0.11906 0.09,0.24341 0.10054,0.37306 0.0106,0.12964 -0.003,0.26458 -0.0423,0.39687 -0.037,0.12436 -0.0979,0.24607 -0.18256,0.35455 -0.44715,0.55033 -1.19592,1.51341 -1.69069,1.97114 z m -0.76729,-0.96044 1.41552,-1.66158 -3.43958,-2.94746 -0.0185,-0.0185 c -0.0159,-0.0159 -0.0344,-0.0344 -0.0476,-0.0503 -0.0212,-0.0238 -0.0397,-0.0503 -0.0556,-0.0794 -0.0873,-0.14288 -0.10583,-0.30692 -0.0688,-0.45773 0.037,-0.15081 0.13229,-0.2884 0.27516,-0.37306 0.99484,-0.54769 2.02142,-1.23296 3.00302,-1.82298 0.11378,-0.0688 0.21432,-0.14552 0.29898,-0.22225 0.0794,-0.0741 0.14552,-0.14817 0.1905,-0.21961 0.0185,-0.0291 0.0318,-0.0529 0.0397,-0.0767 -0.0212,-0.0159 -0.045,-0.0291 -0.0794,-0.045 -0.0503,-0.0238 -0.11642,-0.045 -0.19315,-0.0661 l -13.15508,-3.48721 5.5245,12.44335 c 0.0318,0.0688 0.0635,0.12965 0.0979,0.17992 l 0.008,0.0132 c 0.0185,0.0238 0.0344,0.045 0.0476,0.0582 0.0212,-0.0106 0.0423,-0.0291 0.0688,-0.0529 0.0635,-0.0556 0.127,-0.13229 0.18521,-0.22225 0.0635,-0.0952 0.1217,-0.20902 0.17197,-0.33602 l 1.32292,-3.24908 0.0132,-0.0265 c 0.0106,-0.0212 0.0212,-0.0423 0.0318,-0.0609 l 0.008,-0.0132 c 0.0132,-0.0212 0.0291,-0.0423 0.0476,-0.0635 0.10848,-0.127 0.25929,-0.20108 0.41275,-0.21166 0.15346,-0.0132 0.31221,0.0344 0.44186,0.14287 z m -16.23219,4.0984 c -2.159,-1.8124 -3.88937,-3.64331 -5.16996,-5.50069 h -4.22275 c 0.40217,0.55034 0.85196,1.06098 1.33615,1.54781 0.63235,0.63236 1.30969,1.19063 2.05052,1.68275 0.7329,0.49478 1.52929,0.9234 2.38919,1.29117 0.008,0.008 0.0185,0.008 0.0265,0.0185 0.83343,0.34661 1.69333,0.62177 2.59027,0.7964 0.33073,0.0635 0.66939,0.11906 1.00541,0.16404 z m -10.27112,-6.83683 h 4.24656 c -1.18004,-2.06905 -1.82033,-4.17248 -1.89442,-6.29708 h -4.191 c 0.037,0.73289 0.11906,1.43668 0.25665,2.13254 0.18256,0.90487 0.44714,1.77535 0.81491,2.61672 0.22755,0.53975 0.48419,1.05305 0.7673,1.54782 z m -1.83886,-7.63323 h 4.22011 c 0.1561,-2.08756 0.85196,-4.18306 2.08756,-6.29708 h -4.46881 c -0.28311,0.49477 -0.53975,1.00541 -0.76994,1.54781 -0.008,0.008 -0.008,0.0185 -0.0185,0.0265 -0.34661,0.83344 -0.62177,1.69333 -0.7964,2.59027 -0.13493,0.69585 -0.22754,1.39965 -0.254,2.13254 z m 2.70934,-7.63323 h 4.45823 c 1.27264,-1.83092 2.94745,-3.66977 5.03502,-5.51921 -0.37571,0.045 -0.74084,0.10054 -1.09802,0.17463 -0.90488,0.18256 -1.77536,0.44979 -2.61673,0.81491 -0.85196,0.36513 -1.64836,0.7964 -2.38919,1.29117 -0.74083,0.49477 -1.41817,1.05304 -2.05052,1.68275 -0.48419,0.48419 -0.93398,0.99748 -1.33615,1.54781 z m 12.89579,-5.51921 c 2.0955,1.84944 3.77031,3.68829 5.03502,5.51921 h 4.45823 c -0.40217,-0.55033 -0.85196,-1.06098 -1.33615,-1.54781 -0.63235,-0.63236 -1.30969,-1.19063 -2.05052,-1.6854 -0.73289,-0.49477 -1.52929,-0.92339 -2.38919,-1.29116 -0.008,-0.008 -0.0185,-0.008 -0.0264,-0.0185 -0.83344,-0.34661 -1.69334,-0.62178 -2.59028,-0.7964 -0.36512,-0.0741 -0.73289,-0.127 -1.09802,-0.17463 v -0.005 z m -1.03452,0.87048 v 4.64873 h 4.42912 c -1.16152,-1.53723 -2.63525,-3.08504 -4.42912,-4.64873 z m -1.33615,25.95562 v -4.70429 h -4.65931 c 1.19856,1.57427 2.75431,3.14854 4.65931,4.70429 z m 0,-6.04043 v -6.29708 h -7.70731 c 0.082,2.11402 0.79639,4.20951 2.11402,6.29708 z m 0,-7.63323 v -6.29708 h -5.3631 c -1.37319,2.13254 -2.14048,4.22804 -2.31511,6.29708 z m 0,-7.63323 v -4.64873 c -1.79387,1.56633 -3.2676,3.1115 -4.42912,4.64873 z"
         id="path989"
         style="stroke-width:0.264583" />
      <path
         style="fill:#00ff00;stroke-width:1.56122"
         d="m 241.01919,300.03231 c -5.19206,-11.74465 -8.8932,-21.57507 -8.22477,-21.84536 1.17699,-0.47594 43.77687,10.39953 44.86056,11.4526 0.29579,0.28744 -2.33877,2.33852 -5.85459,4.55796 -3.51582,2.21944 -6.3924,5.02132 -6.3924,6.22641 0,1.20508 2.78952,4.4004 6.19893,7.1007 5.33393,4.22455 5.94644,5.31396 4.38944,7.80711 -1.70048,2.72289 -2.18496,2.57608 -8.04118,-2.43662 -8.23275,-7.04693 -10.91429,-6.85049 -13.50158,0.98907 -1.14776,3.47774 -2.51602,6.58841 -3.04057,6.91261 -0.52456,0.32419 -5.20179,-9.01982 -10.39384,-20.76448 z"
         id="path1055"
         transform="matrix(0.26458333,0,0,0.26458333,94.136166,79.882152)" />
    </g>
    <path
       style="display:inline;fill:#ffffff;stroke-width:2.2079"
       d="m 177.68342,181.04808 c -15.7318,-31.03742 -29.82489,-67.27337 -26.45845,-68.02959 3.83134,-0.86064 80.99235,18.96001 83.47486,21.44252 1.0003,1.0003 -3.21046,5.43183 -9.35724,9.84786 -6.85062,4.92168 -11.17596,9.69215 -11.17596,12.3261 0,2.41679 4.83001,8.45649 11.03844,13.80307 10.62758,9.15227 13.5932,15.39555 8.73831,18.39603 -1.26625,0.78259 -6.48242,-1.98498 -11.59149,-6.15015 -19.68048,-16.04454 -24.70015,-15.53506 -31.83165,3.23081 l -4.44349,11.69263 z"
       id="path1819"
       transform="matrix(0.26458333,0,0,0.26458333,158.41617,158.22368)" />
    <path
       style="display:inline;fill:#ffffff;stroke-width:2.2079"
       d=""
       id="path1858"
       transform="matrix(0.26458333,0,0,0.26458333,158.41617,158.22368)" />
    <path
       style="display:inline;fill:#ffff00;stroke-width:2.2079"
       d="m 171.06113,163.93683 c -14.40879,-31.93645 -19.80834,-46.56137 -17.89645,-48.47326 1.54907,-1.54907 74.47156,16.59876 77.24426,19.22336 1.04002,0.98447 -2.18904,5.47596 -7.17568,9.98109 -4.98665,4.50513 -9.06663,10.17216 -9.06663,12.59339 0,2.42124 4.47101,8.81 9.93557,14.19726 8.6122,8.49036 12.73811,16.21312 8.66192,16.21312 -0.70051,0 -6.82359,-3.97423 -13.60685,-8.83161 -6.78326,-4.85739 -14.00459,-8.83162 -16.04739,-8.83162 -4.81058,0 -10.33133,6.1906 -13.41859,15.04672 -1.34831,3.86777 -3.234,7.03232 -4.19042,7.03232 -0.95641,0 -7.4543,-12.66785 -14.43974,-28.15077 z"
       id="path1973"
       transform="matrix(0.26458333,0,0,0.26458333,158.41617,158.22368)" />
  </g>
  <style
     type="text/css"
     id="style9">.st0{fill-rule:evenodd;clip-rule:evenodd;}</style>
  <style
     type="text/css"
     id="style970">.st0{fill-rule:evenodd;clip-rule:evenodd;}</style>
  <style
     type="text/css"
     id="style3952"><![CDATA[
	.st0{fill-rule:evenodd;clip-rule:evenodd;}
	.st1{fill-rule:evenodd;clip-rule:evenodd;fill:#FFFFFF;}
]]></style>
  <style
     type="text/css"
     id="style4812"><![CDATA[
	.st0{fill-rule:evenodd;clip-rule:evenodd;}
	.st1{fill-rule:evenodd;clip-rule:evenodd;fill:#FFFFFF;}
]]></style>
  <style
     type="text/css"
     id="style5030">.st0{fill-rule:evenodd;clip-rule:evenodd;stroke:#000000;stroke-width:0.216;stroke-miterlimit:2.6131;}</style>
  <style
     type="text/css"
     id="style9-5">.st0{fill-rule:evenodd;clip-rule:evenodd;}</style>
  <style
     type="text/css"
     id="style9-2">.st0{fill-rule:evenodd;clip-rule:evenodd;}</style>
  <style
     type="text/css"
     id="style9-1">.st0{fill-rule:evenodd;clip-rule:evenodd;}</style>
  <style
     type="text/css"
     id="style970-2">.st0{fill-rule:evenodd;clip-rule:evenodd;}</style>
  <style
     type="text/css"
     id="style3952-7"><![CDATA[
	.st0{fill-rule:evenodd;clip-rule:evenodd;}
	.st1{fill-rule:evenodd;clip-rule:evenodd;fill:#FFFFFF;}
]]></style>
  <style
     type="text/css"
     id="style4812-0"><![CDATA[
	.st0{fill-rule:evenodd;clip-rule:evenodd;}
	.st1{fill-rule:evenodd;clip-rule:evenodd;fill:#FFFFFF;}
]]></style>
  <style
     type="text/css"
     id="style5030-9">.st0{fill-rule:evenodd;clip-rule:evenodd;stroke:#000000;stroke-width:0.216;stroke-miterlimit:2.6131;}</style>
</svg>
