<?xml version="1.0" encoding="UTF-8" standalone="no"?>
<!-- Created with Inkscape (http://www.inkscape.org/) -->

<svg
   width="32.511864mm"
   height="30.282169mm"
   viewBox="0 0 32.511864 30.282169"
   version="1.1"
   id="svg5"
   xmlns="http://www.w3.org/2000/svg"
   xmlns:svg="http://www.w3.org/2000/svg">
  <defs
     id="defs2" />
  <style
     type="text/css"
     id="style9">.st0{fill-rule:evenodd;clip-rule:evenodd;}</style>
  <style
     type="text/css"
     id="style970">.st0{fill-rule:evenodd;clip-rule:evenodd;}</style>
  <path
     class="st0"
     d="m 29.313863,28.543857 v 1.185333 c 0,0.306917 -0.248708,0.552979 -0.552979,0.552979 H 3.5990086 c -0.3069167,0 -0.5529792,-0.248708 -0.5529792,-0.552979 v -1.185333 -6.265333 -6.693959 c -0.619125,0.238125 -1.1985625,0.243417 -1.6801042,0.07937 -0.37570833,-0.127 -0.69320833,-0.354541 -0.92604163,-0.648229 -0.2328333,-0.293687 -0.381,-0.650875 -0.4259792,-1.045104 -0.068792,-0.611188 0.1137709,-1.30175 0.635,-1.949979 v 0 c 0.026458,-0.03175 0.055563,-0.0635 0.089958,-0.08996 L 15.833342,0.14612858 c 0.195792,-0.1799166 0.497417,-0.1984375 0.714375,-0.029104 L 31.679238,11.880399 v 0 c 0.02381,0.01852 0.04498,0.03704 0.06615,0.06085 0.701146,0.754062 0.875771,1.590146 0.706438,2.296583 -0.08467,0.34925 -0.251355,0.664104 -0.481542,0.92075 -0.230188,0.259292 -0.523875,0.460375 -0.85725,0.579438 -0.529167,0.1905 -1.158875,0.185208 -1.796521,-0.116417 v 6.656917 6.265333 z M 1.4717586,12.761461 c -0.2936875,0.383646 -0.396875,0.767292 -0.3624792,1.090083 0.021167,0.185209 0.087312,0.34925 0.1931458,0.481542 0.1031875,0.129646 0.2434167,0.227542 0.41275,0.28575 0.2883959,0.0979 0.6614584,0.07144 1.0874375,-0.129646 L 15.976217,4.4667745 c 0.20373,-0.1561042 0.481542,-0.1481667 0.674688,0.00265 v 0 l 12.797896,9.9483325 c 0.0053,0.0053 0.01058,0.01058 0.01852,0.01323 0.468312,0.338667 0.918104,0.391583 1.267354,0.267229 0.161396,-0.05821 0.301625,-0.153458 0.410104,-0.277812 0.111125,-0.124355 0.1905,-0.272521 0.230187,-0.439209 0.08731,-0.365125 -0.01852,-0.814916 -0.410104,-1.254125 L 16.209051,1.2547328 Z m 6.3579371,7.212542 h 7.0643763 c 0.275166,0 0.500062,0.219604 0.500062,0.489479 v 5.527146 c 0,0.269875 -0.224896,0.489479 -0.500062,0.489479 H 7.8296957 c -0.275166,0 -0.500062,-0.219604 -0.500062,-0.489479 v -5.527146 c 0.0026,-0.269875 0.224896,-0.489479 0.500062,-0.489479 z M 17.918259,19.487169 h 6.633104 c 0.296334,0 0.537104,0.248709 0.537104,0.555625 v 9.133417 h 3.116792 V 14.968086 c 0,-0.03704 0.0026,-0.07144 0.01058,-0.105833 L 16.306947,5.6044828 4.1334669,14.867544 c 0.013229,0.04498 0.018521,0.09261 0.018521,0.142875 V 29.173565 H 17.381155 v -9.133416 c 0,-0.306917 0.240771,-0.55298 0.537104,-0.55298 z m 6.096,1.108605 h -5.55625 v 8.567208 h 5.55625 z m -9.62025,3.119437 h -2.622021 v 1.785938 h 2.622021 z m -3.600979,0 H 8.3297587 v 1.785938 H 10.79303 Z M 8.3297587,22.736253 H 10.79303 V 20.952961 H 8.3297587 Z m 3.4422293,0 h 2.622021 V 20.952961 H 11.771988 Z M 16.105863,9.6129203 c 0.939271,0 1.701271,0.7619987 1.701271,1.7012697 0,0.939271 -0.762,1.701271 -1.701271,1.701271 -0.939271,0 -1.701271,-0.762 -1.701271,-1.701271 0,-0.941916 0.762,-1.7012697 1.701271,-1.7012697 z"
     id="path972"
     style="stroke-width:0.264583;fill:#000000" />
  <path
     style="fill:#ff0000;stroke-width:0.575911"
     d=""
     id="path1620"
     transform="scale(0.26458333)" />
  <path
     style="fill:#ff00ff;stroke-width:0.575911"
     d="m 16.133118,83.075139 0.0076,-26.923832 22.308931,-16.955318 C 50.719575,29.870563 61.147334,22.238066 61.62246,22.234882 c 0.475127,-0.0032 10.776732,7.707959 22.892456,17.135871 l 22.028594,17.14166 v 26.74328 26.743277 H 100.7844 95.025289 V 92.165996 c 0,-17.041517 -0.04941,-17.859431 -1.113961,-18.429145 -1.491419,-0.798184 -25.65211,-0.798184 -27.143531,0 -1.064522,0.569714 -1.113961,1.387628 -1.113961,18.429145 V 109.99897 H 40.88967 16.125504 Z M 58.18125,98.731218 C 59.039858,96.47291 58.906192,77.615444 58.023018,76.407972 57.371259,75.516891 55.913277,75.438343 42.617402,75.57801 l -14.685726,0.154266 -0.156579,11.50197 c -0.08612,6.326082 -0.02946,11.833229 0.125903,12.238106 0.219114,0.570998 3.584122,0.736138 15.000537,0.736138 h 14.718056 z m 5.738493,-50.063463 c 2.396724,-1.239394 3.461826,-3.069458 3.461826,-5.948132 0,-2.099191 -0.327655,-2.848701 -1.958097,-4.479143 -1.630442,-1.630442 -2.379952,-1.958097 -4.479143,-1.958097 -2.878674,0 -4.708738,1.065102 -5.948132,3.461826 -1.098337,2.123947 -1.087102,3.661531 0.04417,6.04551 1.542339,3.250239 5.610028,4.568683 8.879377,2.878036 z"
     id="path1774"
     transform="scale(0.26458333)" />
  <path
     style="fill:#ff0000;stroke-width:0.575911"
     d="m 16.198478,95.457222 c 0.04014,-7.997961 0.234506,-20.161983 0.431933,-27.03116 L 16.98937,55.93665 33.166457,43.638824 C 53.006083,28.556732 60.651493,23.035469 61.690656,23.039586 c 0.86305,0.0034 8.58041,5.736477 30.617843,22.745326 l 14.177351,10.942306 0.0289,26.635877 0.0288,26.635875 H 100.7844 95.025289 V 92.260917 c 0,-13.028383 -0.183491,-17.921548 -0.691093,-18.429147 -0.981,-0.980999 -27.008268,-0.980999 -27.989267,0 -0.507599,0.507599 -0.691093,5.400764 -0.691093,18.429147 V 109.99897 H 40.88967 16.125504 Z m 42.207066,3.808476 c 0.676585,-1.763151 0.417412,-22.167127 -0.292433,-23.022437 -0.534181,-0.643649 -3.55982,-0.79894 -15.566226,-0.79894 H 27.643721 v 11.99814 c 0,6.598983 0.172773,12.17092 0.38394,12.382083 0.211167,0.211166 7.051177,0.383946 15.200022,0.383946 13.189799,0 14.855791,-0.10349 15.177861,-0.942792 z m 5.702398,-50.380681 c 2.275208,-1.163551 3.247287,-2.937968 3.260821,-5.952242 0.01094,-2.436873 -0.255196,-3.128644 -1.827901,-4.751264 -1.585897,-1.63623 -2.228929,-1.899128 -4.645148,-1.899128 -3.398783,0 -4.746494,0.656214 -5.890268,2.868027 -1.657832,3.205895 -0.690827,7.500103 2.134582,9.479096 1.494844,1.04703 5.157551,1.18134 6.967914,0.255511 z"
     id="path1965"
     transform="scale(0.26458333)" />
  <path
     style="fill:#ffb380;stroke-width:0.575911"
     d="M 5.8872522,54.390918 C 4.2081483,53.214828 4.2154645,50.601749 5.9030862,48.735584 6.9650619,47.561257 58.766646,6.8802106 60.801027,5.6228943 61.666005,5.0883082 117.00917,48.277538 117.92443,50.201402 c 1.42698,2.999515 -1.20878,5.777464 -4.61397,4.86287 -0.71269,-0.191421 -12.43968,-9.03061 -26.059967,-19.642645 -13.620292,-10.612034 -25.1422,-19.294949 -25.604242,-19.295365 -0.462036,-4.17e-4 -3.831117,2.286717 -7.486838,5.08252 -22.638679,17.313482 -43.348237,32.95649 -44.3170811,33.475 -1.5440534,0.826353 -2.453298,0.759025 -3.9550797,-0.292864 z"
     id="path2621"
     transform="scale(0.26458333)" />
</svg>
