<?xml version="1.0" encoding="UTF-8" standalone="no"?>
<!-- Created with Inkscape (http://www.inkscape.org/) -->

<svg
   width="32.512001mm"
   height="21.269854mm"
   viewBox="0 0 32.512001 21.269853"
   version="1.1"
   id="svg5"
   xmlns="http://www.w3.org/2000/svg"
   xmlns:svg="http://www.w3.org/2000/svg">
  <defs
     id="defs2">
    <style
       id="style2760">.cls-1,.cls-2{fill-rule:evenodd;}.cls-2{fill:red;}.cls-3{fill:#fff;}</style>
  </defs>
  <style
     type="text/css"
     id="style9">.st0{fill-rule:evenodd;clip-rule:evenodd;}</style>
  <style
     type="text/css"
     id="style970">.st0{fill-rule:evenodd;clip-rule:evenodd;}</style>
  <style
     type="text/css"
     id="style3952"><![CDATA[
	.st0{fill-rule:evenodd;clip-rule:evenodd;}
	.st1{fill-rule:evenodd;clip-rule:evenodd;fill:#FFFFFF;}
]]></style>
  <style
     type="text/css"
     id="style4812"><![CDATA[
	.st0{fill-rule:evenodd;clip-rule:evenodd;}
	.st1{fill-rule:evenodd;clip-rule:evenodd;fill:#FFFFFF;}
]]></style>
  <g
     id="g4828"
     transform="scale(0.26458333)">
    <path
       class="st0"
       d="m 24.52,0 h 73.84 c 1.4,0 2.69,0.58 3.62,1.51 v 0 l 0.01,0.01 0.01,0.01 v 0 c 0.93,0.94 1.51,2.22 1.51,3.62 v 10.49 h 11.48 c 2.18,0 4.15,0.89 5.57,2.32 1.43,1.43 2.32,3.41 2.32,5.58 v 33.32 c 0,2.16 -0.89,4.14 -2.32,5.57 -0.11,0.11 -0.22,0.21 -0.34,0.3 -1.4,1.25 -3.24,2.02 -5.23,2.02 h -11.48 v 10.49 c 0,1.42 -0.58,2.7 -1.51,3.64 -0.93,0.93 -2.22,1.51 -3.63,1.51 H 24.52 c -1.4,0 -2.69,-0.58 -3.63,-1.51 L 20.88,78.87 20.87,78.86 20.86,78.85 C 19.93,77.91 19.35,76.63 19.35,75.23 V 64.75 H 7.89 C 5.73,64.75 3.75,63.86 2.31,62.43 0.89,61.01 0,59.04 0,56.86 V 23.54 C 0,21.36 0.89,19.39 2.31,17.96 2.42,17.85 2.53,17.75 2.65,17.65 4.05,16.4 5.88,15.64 7.89,15.64 H 19.36 V 5.14 C 19.37,3.72 19.95,2.44 20.88,1.5 20.94,1.45 21,1.4 21.06,1.35 21.98,0.51 23.19,0 24.52,0 Z M 98.86,64.75 H 24.03 v 10.48 c 0,0.14 0.05,0.26 0.14,0.35 v 0 l 0.01,0.01 c 0.09,0.09 0.21,0.14 0.35,0.14 h 73.84 c 0.13,0 0.25,-0.06 0.35,-0.15 0.09,-0.09 0.15,-0.21 0.15,-0.35 V 64.75 Z"
       id="path4814" />
    <path
       class="st1"
       d="m 7.89,19.92 h 107.09 c 1.99,0 3.62,1.65 3.62,3.62 v 33.32 c 0,1.97 -1.65,3.62 -3.62,3.62 H 7.89 c -1.97,0 -3.62,-1.63 -3.62,-3.62 V 23.54 c 0,-2 1.63,-3.62 3.62,-3.62 z"
       id="path4816" />
    <path
       d="m 15.69,28.67 h 5.82 v 7.71 c 0.79,-0.83 1.58,-1.42 2.36,-1.77 0.78,-0.36 1.7,-0.53 2.77,-0.53 1.58,0 2.83,0.48 3.73,1.45 0.91,0.96 1.36,2.44 1.36,4.44 v 9.66 h -5.85 v -8.36 c 0,-0.96 -0.18,-1.63 -0.53,-2.02 -0.35,-0.4 -0.84,-0.6 -1.48,-0.6 -0.7,0 -1.27,0.27 -1.7,0.8 -0.43,0.54 -0.65,1.49 -0.65,2.88 v 7.3 H 15.7 V 28.67 Z m 26.54,0 v 5.77 h 3.19 v 4.27 h -3.19 v 5.38 c 0,0.64 0.06,1.07 0.18,1.28 0.19,0.32 0.53,0.48 1.01,0.48 0.43,0 1.03,-0.12 1.8,-0.37 l 0.43,4.02 c -1.44,0.32 -2.78,0.47 -4.03,0.47 -1.45,0 -2.52,-0.18 -3.2,-0.55 -0.68,-0.37 -1.19,-0.94 -1.52,-1.69 -0.33,-0.76 -0.49,-1.99 -0.49,-3.68 v -5.34 h -2.14 v -4.27 h 2.14 v -2.79 z m 13.42,0 v 5.77 h 3.19 v 4.27 h -3.19 v 5.38 c 0,0.64 0.06,1.08 0.18,1.28 0.19,0.32 0.53,0.48 1.01,0.48 0.43,0 1.03,-0.12 1.8,-0.37 l 0.43,4.02 c -1.44,0.32 -2.78,0.47 -4.03,0.47 -1.45,0 -2.52,-0.18 -3.2,-0.55 -0.68,-0.37 -1.19,-0.94 -1.52,-1.69 -0.33,-0.75 -0.49,-1.99 -0.49,-3.68 v -5.34 h -2.14 v -4.27 h 2.14 v -2.79 z m 5.99,26.72 V 34.43 h 5.45 v 2.24 c 0.75,-0.95 1.45,-1.58 2.07,-1.92 0.84,-0.45 1.78,-0.67 2.81,-0.67 2.03,0 3.6,0.78 4.71,2.33 1.11,1.55 1.66,3.48 1.66,5.77 0,2.53 -0.61,4.46 -1.81,5.79 -1.21,1.33 -2.74,2 -4.58,2 -0.9,0 -1.72,-0.15 -2.45,-0.45 -0.74,-0.3 -1.4,-0.75 -1.98,-1.35 v 7.22 z m 5.84,-13.31 c 0,1.21 0.25,2.1 0.75,2.69 0.5,0.58 1.14,0.88 1.91,0.88 0.67,0 1.24,-0.28 1.7,-0.84 0.46,-0.56 0.68,-1.51 0.68,-2.85 0,-1.24 -0.24,-2.15 -0.71,-2.73 -0.48,-0.58 -1.05,-0.87 -1.74,-0.87 -0.74,0 -1.36,0.29 -1.85,0.88 -0.49,0.58 -0.74,1.52 -0.74,2.84 z m 13.69,-7.65 h 6.21 v 5.82 h -6.21 z m 0,9.37 h 6.21 v 5.82 H 81.17 Z M 96.12,28.31 h 2.94 l -5.28,21.66 h -2.94 z m 8.13,0 h 2.94 l -5.28,21.66 h -2.94 z"
       id="path4818" />
    <path
       class="st1"
       d="M 24.12,64.75 H 98.8 c 0.05,0 0.09,0.04 0.09,0.09 v 10.39 c 0,0.27 -0.22,0.49 -0.49,0.49 H 24.52 c -0.27,0 -0.49,-0.22 -0.49,-0.49 V 64.84 c 0,-0.05 0.04,-0.09 0.09,-0.09 z"
       id="path4820" />
    <path
       class="st1"
       d="m 30.24,6.61 c 1.83,0 3.32,1.49 3.32,3.31 0,1.83 -1.49,3.32 -3.32,3.32 -1.83,0 -3.31,-1.49 -3.31,-3.32 0,-1.82 1.48,-3.31 3.31,-3.31 z"
       id="path4822" />
    <path
       class="st1"
       d="m 41.96,6.61 c 1.83,0 3.32,1.49 3.32,3.31 0,1.83 -1.49,3.32 -3.32,3.32 -1.83,0 -3.31,-1.49 -3.31,-3.32 0,-1.82 1.48,-3.31 3.31,-3.31 z"
       id="path4824" />
    <path
       class="st1"
       d="m 53.69,6.61 c 1.83,0 3.31,1.49 3.31,3.32 0,1.83 -1.49,3.32 -3.32,3.32 -1.83,0 -3.32,-1.49 -3.32,-3.32 0.01,-1.83 1.5,-3.32 3.33,-3.32 z"
       id="path4826" />
  </g>
  <path
     style="fill:#800000;stroke-width:0.40723"
     d="M 5.6699011,59.079743 4.4795351,57.889377 V 40.32037 c 0,-11.806445 0.1443212,-17.838674 0.440009,-18.391172 1.0888681,-2.034569 -0.6202263,-1.974905 56.5722559,-1.974905 58.21785,0 55.54787,-0.108841 56.54778,2.30515 0.36256,0.8753 0.4604,5.724465 0.37557,18.614633 l -0.1147,17.430991 -1.14259,0.982521 -1.1426,0.982521 H 61.437765 6.860267 Z M 67.600257,52.115042 V 48.84674 l 1.201468,0.621304 c 1.820972,0.94166 4.926735,0.80126 6.555478,-0.296349 2.283069,-1.538561 3.035423,-3.283471 3.029506,-7.026252 -0.0044,-2.811015 -0.158446,-3.522325 -1.116569,-5.157241 -1.868822,-3.188903 -6.047043,-4.107098 -8.943767,-1.965457 l -1.133347,0.837919 v -0.826653 c 0,-0.751987 -0.257471,-0.826652 -2.850613,-0.826652 H 61.4918 v 10.587992 10.587992 h 3.054228 3.054229 z M 45.703976,49.680568 c 0.08741,-0.111137 0.08608,-1.137827 -0.0029,-2.281533 l -0.162029,-2.079466 -1.491757,0.04331 -1.491756,0.04331 -0.118937,-3.156036 -0.118938,-3.156037 h 1.646052 1.646052 V 36.650742 34.207359 H 43.98089 42.351968 v -2.850613 c 0,-1.567838 -0.0962,-2.850614 -0.213781,-2.850614 -0.11758,0 -1.491983,0.643692 -3.054229,1.430427 -2.699343,1.359367 -2.840447,1.500976 -2.840447,2.850613 0,1.243379 -0.126746,1.420187 -1.018076,1.420187 -0.972828,0 -1.018076,0.108595 -1.018076,2.443383 0,2.334788 0.04525,2.443382 1.018076,2.443382 1.010803,0 1.018076,0.02628 1.018076,3.678154 0,4.133831 0.662681,6.294209 2.119867,6.910888 0.923082,0.390647 7.032988,0.388485 7.340598,-0.0026 z m 12.742709,0.176348 c 0.728857,-0.195859 0.799109,-0.46227 0.610846,-2.316502 -0.210962,-2.077786 -0.224571,-2.095353 -1.638036,-2.114704 l -1.425306,-0.01951 -0.118936,-3.156036 -0.11894,-3.156037 h 1.646054 1.64605 v -2.443382 -2.443383 h -1.628922 -1.628922 v -2.850613 c 0,-1.567838 -0.0962,-2.850614 -0.213779,-2.850614 -0.11758,0 -1.491983,0.643692 -3.054229,1.430427 -2.699343,1.359367 -2.840448,1.500976 -2.840448,2.850613 0,1.243379 -0.126747,1.420187 -1.018077,1.420187 -0.972828,0 -1.018076,0.108595 -1.018076,2.443383 0,2.334788 0.04525,2.443382 1.018076,2.443382 1.014876,0 1.018077,0.01223 1.018077,3.888913 0,4.247868 0.58455,6.060111 2.159282,6.694277 1.000883,0.40307 5.335118,0.52092 6.605286,0.179602 z m 38.08706,-10.253753 c 1.395245,-5.767402 2.622491,-10.715252 2.727218,-10.995223 0.134232,-0.358854 -0.333069,-0.507736 -1.58389,-0.504625 l -1.774299,0.0044 -2.562644,10.685387 c -1.409453,5.876962 -2.554789,10.822827 -2.545191,10.990809 0.0096,0.167983 0.733976,0.305423 1.609725,0.305423 h 1.592272 L 96.533745,39.60315 Z m 8.138175,0 c 1.39705,-5.767402 2.62649,-10.715252 2.73208,-10.995223 0.13534,-0.358867 -0.33145,-0.508516 -1.58232,-0.507269 l -1.7743,0.0018 -2.54864,10.484416 c -1.40175,5.766428 -2.547088,10.713482 -2.545191,10.993453 0.002,0.319581 0.594264,0.509038 1.590861,0.509038 h 1.5874 l 2.54011,-10.486184 z M 21.649979,44.96214 c 0.127725,-4.405227 0.201852,-4.772555 1.111612,-5.508444 0.858357,-0.694311 1.077195,-0.720558 1.832537,-0.21979 0.781982,0.518429 0.867879,1.005161 0.972118,5.508444 l 0.114341,4.939767 h 3.041695 3.041694 l -0.0015,-6.210265 c -0.0013,-5.404334 -0.10293,-6.376572 -0.782944,-7.491781 -1.422517,-2.3329 -5.916778,-2.821665 -8.349558,-0.90804 l -1.046737,0.823363 V 32.200763 28.506132 H 18.529008 15.47478 v 10.587992 10.587993 h 3.019185 3.019185 z M 87.55455,46.627888 V 43.57366 h -3.257844 -3.257844 v 3.054228 3.054229 h 3.257844 3.257844 z m 0,-9.366301 v -3.054228 h -3.257844 -3.257844 v 3.054228 3.054229 h 3.257844 3.257844 z"
     id="path4844"
     transform="scale(0.26458333)" />
  <path
     style="fill:#800000;stroke-width:0.40723"
     d="m 68.928817,44.987262 c -1.977779,-1.38529 -1.349804,-6.308678 0.802811,-6.294132 1.340783,0.0091 1.90714,0.492155 2.337927,1.994223 0.505133,1.761294 0.104437,3.588604 -0.948661,4.326223 -1.054055,0.738289 -1.101262,0.737722 -2.192077,-0.02632 z"
     id="path4883"
     transform="scale(0.26458333)" />
</svg>
