<?xml version="1.0" encoding="UTF-8" standalone="no"?>
<!-- Created with Inkscape (http://www.inkscape.org/) -->

<svg
   width="32.512001mm"
   height="21.269854mm"
   viewBox="0 0 32.512001 21.269853"
   version="1.1"
   id="svg5"
   xmlns="http://www.w3.org/2000/svg"
   xmlns:svg="http://www.w3.org/2000/svg">
  <defs
     id="defs2">
    <style
       id="style2760">.cls-1,.cls-2{fill-rule:evenodd;}.cls-2{fill:red;}.cls-3{fill:#fff;}</style>
  </defs>
  <style
     type="text/css"
     id="style9">.st0{fill-rule:evenodd;clip-rule:evenodd;}</style>
  <style
     type="text/css"
     id="style970">.st0{fill-rule:evenodd;clip-rule:evenodd;}</style>
  <style
     type="text/css"
     id="style3952"><![CDATA[
	.st0{fill-rule:evenodd;clip-rule:evenodd;}
	.st1{fill-rule:evenodd;clip-rule:evenodd;fill:#FFFFFF;}
]]></style>
  <g
     id="g3968"
     transform="scale(0.26458333)">
    <path
       class="st0"
       d="m 24.52,0 h 73.84 c 1.4,0 2.69,0.58 3.62,1.51 v 0 l 0.01,0.01 0.01,0.01 v 0 c 0.93,0.94 1.51,2.22 1.51,3.62 v 10.49 h 11.48 c 2.18,0 4.15,0.89 5.57,2.32 1.43,1.43 2.32,3.41 2.32,5.58 v 33.32 c 0,2.16 -0.89,4.14 -2.32,5.57 -0.11,0.11 -0.22,0.21 -0.34,0.3 -1.4,1.25 -3.24,2.02 -5.23,2.02 h -11.48 v 10.49 c 0,1.42 -0.58,2.71 -1.51,3.64 -0.93,0.93 -2.22,1.51 -3.63,1.51 H 24.52 c -1.4,0 -2.69,-0.57 -3.63,-1.51 L 20.88,78.87 20.87,78.86 20.86,78.85 C 19.93,77.91 19.35,76.63 19.35,75.23 V 64.75 H 7.89 C 5.73,64.75 3.75,63.86 2.31,62.43 0.89,61.01 0,59.04 0,56.86 V 23.54 C 0,21.36 0.89,19.39 2.31,17.96 2.42,17.85 2.53,17.75 2.65,17.65 4.05,16.4 5.88,15.64 7.89,15.64 H 19.36 V 5.14 C 19.37,3.72 19.95,2.44 20.88,1.5 20.94,1.45 21,1.4 21.06,1.35 21.98,0.51 23.19,0 24.52,0 Z M 98.86,64.75 H 24.03 v 10.48 c 0,0.14 0.05,0.26 0.14,0.35 v 0 l 0.01,0.01 c 0.09,0.09 0.21,0.14 0.35,0.14 h 73.84 c 0.13,0 0.25,-0.05 0.35,-0.15 0.09,-0.09 0.15,-0.21 0.15,-0.35 V 64.75 Z"
       id="path3954" />
    <path
       class="st1"
       d="m 7.89,19.92 h 107.09 c 1.99,0 3.62,1.65 3.62,3.62 v 33.32 c 0,1.97 -1.65,3.62 -3.62,3.62 H 7.89 c -1.97,0 -3.62,-1.63 -3.62,-3.62 V 23.54 c 0,-2 1.63,-3.62 3.62,-3.62 z"
       id="path3956" />
    <path
       class="st1"
       d="M 24.12,64.75 H 98.8 c 0.05,0 0.09,0.04 0.09,0.09 v 10.39 c 0,0.27 -0.22,0.49 -0.49,0.49 H 24.52 c -0.27,0 -0.49,-0.22 -0.49,-0.49 V 64.84 c 0,-0.05 0.04,-0.09 0.09,-0.09 z"
       id="path3958" />
    <path
       class="st1"
       d="m 30.24,6.61 c 1.83,0 3.32,1.49 3.32,3.32 0,1.83 -1.49,3.32 -3.32,3.32 -1.83,0 -3.31,-1.49 -3.31,-3.32 0,-1.83 1.48,-3.32 3.31,-3.32 z"
       id="path3960" />
    <path
       class="st1"
       d="m 41.96,6.61 c 1.83,0 3.32,1.49 3.32,3.32 0,1.83 -1.49,3.32 -3.32,3.32 -1.83,0 -3.31,-1.49 -3.31,-3.32 0,-1.83 1.48,-3.32 3.31,-3.32 z"
       id="path3962" />
    <path
       class="st1"
       d="m 53.69,6.61 c 1.83,0 3.31,1.49 3.31,3.32 0,1.83 -1.49,3.32 -3.32,3.32 -1.83,0 -3.32,-1.49 -3.32,-3.32 0,-1.83 1.5,-3.32 3.33,-3.32 z"
       id="path3964" />
    <path
       d="m 9.88,28.71 h 5.73 v 7.58 c 0.78,-0.81 1.55,-1.39 2.32,-1.74 0.76,-0.35 1.67,-0.52 2.72,-0.52 1.55,0 2.78,0.48 3.67,1.42 0.89,0.95 1.34,2.4 1.34,4.36 v 9.49 h -5.75 v -8.2 c 0,-0.94 -0.17,-1.6 -0.52,-1.99 -0.35,-0.39 -0.83,-0.58 -1.45,-0.58 -0.69,0 -1.25,0.26 -1.67,0.79 -0.43,0.53 -0.64,1.47 -0.64,2.83 v 7.17 H 9.88 Z m 25.34,0 v 5.67 h 3.14 v 4.2 h -3.14 v 5.28 c 0,0.63 0.06,1.06 0.18,1.26 0.18,0.31 0.52,0.47 0.99,0.47 0.42,0 1.01,-0.12 1.77,-0.37 l 0.42,3.96 c -1.41,0.31 -2.73,0.47 -3.96,0.47 -1.42,0 -2.48,-0.19 -3.15,-0.55 -0.67,-0.36 -1.18,-0.92 -1.5,-1.66 -0.32,-0.74 -0.48,-1.95 -0.48,-3.62 v -5.25 h -2.1 v -4.2 h 2.1 v -2.74 z m 12.77,0 v 5.67 h 3.14 v 4.2 h -3.14 v 5.28 c 0,0.63 0.06,1.06 0.18,1.26 0.18,0.31 0.52,0.47 0.99,0.47 0.42,0 1.01,-0.12 1.77,-0.37 l 0.42,3.96 c -1.41,0.31 -2.73,0.47 -3.96,0.47 -1.42,0 -2.48,-0.19 -3.15,-0.55 -0.67,-0.36 -1.18,-0.92 -1.5,-1.66 -0.32,-0.74 -0.48,-1.95 -0.48,-3.62 v -5.25 h -2.1 v -4.2 h 2.1 v -2.74 z m 5.33,26.27 v -20.6 h 5.36 v 2.2 c 0.74,-0.93 1.43,-1.56 2.04,-1.88 0.83,-0.43 1.75,-0.66 2.77,-0.66 1.99,0 3.54,0.77 4.63,2.29 1.09,1.52 1.64,3.42 1.64,5.67 0,2.49 -0.6,4.39 -1.79,5.7 -1.18,1.3 -2.69,1.96 -4.51,1.96 -0.88,0 -1.69,-0.15 -2.41,-0.45 -0.72,-0.29 -1.38,-0.74 -1.95,-1.33 v 7.1 z m 5.74,-13.09 c 0,1.19 0.25,2.07 0.74,2.64 0.49,0.57 1.12,0.86 1.88,0.86 0.66,0 1.22,-0.28 1.67,-0.83 0.44,-0.54 0.67,-1.48 0.67,-2.8 0,-1.22 -0.24,-2.12 -0.7,-2.68 -0.46,-0.57 -1.04,-0.85 -1.71,-0.85 -0.73,0 -1.34,0.29 -1.82,0.86 -0.48,0.58 -0.73,1.51 -0.73,2.8 z m 11.99,3.28 5.67,-0.52 c 0.23,0.67 0.56,1.15 0.98,1.44 0.42,0.29 0.98,0.43 1.69,0.43 0.77,0 1.37,-0.18 1.79,-0.49 0.32,-0.24 0.49,-0.55 0.49,-0.91 0,-0.41 -0.22,-0.74 -0.65,-0.96 -0.3,-0.15 -1.13,-0.36 -2.46,-0.59 -1.98,-0.34 -3.37,-0.68 -4.14,-0.96 -0.76,-0.29 -1.43,-0.8 -1.95,-1.49 -0.52,-0.7 -0.79,-1.51 -0.79,-2.41 0,-0.98 0.29,-1.84 0.85,-2.54 0.56,-0.71 1.36,-1.25 2.36,-1.6 1,-0.35 2.35,-0.53 4.03,-0.53 1.78,0 3.1,0.14 3.93,0.41 0.84,0.27 1.56,0.7 2.12,1.27 0.56,0.57 1.04,1.35 1.41,2.33 l -5.41,0.52 c -0.14,-0.47 -0.38,-0.83 -0.7,-1.05 -0.44,-0.29 -0.99,-0.45 -1.63,-0.45 -0.64,0 -1.12,0.12 -1.4,0.35 -0.28,0.23 -0.44,0.51 -0.44,0.83 0,0.37 0.2,0.65 0.56,0.83 0.36,0.18 1.19,0.37 2.44,0.51 1.9,0.21 3.32,0.52 4.24,0.9 0.92,0.38 1.64,0.94 2.12,1.65 0.49,0.71 0.74,1.5 0.74,2.35 0,0.86 -0.27,1.71 -0.78,2.52 -0.51,0.81 -1.35,1.47 -2.46,1.95 -1.11,0.48 -2.64,0.72 -4.57,0.72 -2.72,0 -4.67,-0.4 -5.82,-1.17 -1.14,-0.8 -1.89,-1.91 -2.22,-3.34 z M 89.1,34.38 h 6.1 v 5.73 h -6.1 z m 0,9.21 h 6.1 v 5.72 h -6.1 z m 13.02,-15.22 h 2.89 l -5.19,21.29 h -2.89 z m 7.99,0 H 113 l -5.19,21.29 h -2.89 z"
       id="path3966" />
  </g>
  <path
     style="fill:#008000;stroke-width:0.575911"
     d="M 7.486841,60.062067 C 7.0117145,59.887367 6.1694449,59.34934 5.6151307,58.866453 4.6960384,58.065793 4.6072868,56.424166 4.6072868,40.2245 c 0,-16.996096 0.04979,-17.813767 1.1518216,-18.915799 C 6.8947378,20.173072 7.6788112,20.15688 61.5332,20.15688 c 52.35586,0 54.66216,0.04408 55.58361,1.062265 0.86254,0.9531 0.9457,2.948851 0.80915,19.420198 l -0.15219,18.357934 -1.43978,0.728191 C 115.2027,60.297637 103.48026,60.445736 61.62246,60.416682 32.322996,60.396345 7.9619674,60.236768 7.486841,60.062067 Z m 51.831976,-7.980945 c 0,-3.079568 0.05123,-3.187849 1.295799,-2.739093 4.285963,1.545388 8.09748,-0.450061 9.096345,-4.762222 0.879381,-3.796319 -0.546534,-8.762781 -2.873403,-10.008084 -1.648793,-0.882408 -5.357348,-0.717222 -6.814687,0.30354 -1.158468,0.811423 -1.279965,0.811423 -1.279965,0 0,-0.691887 -0.657273,-0.896523 -2.879554,-0.896523 h -2.879554 v 10.65435 10.654351 h 3.167509 3.16751 z M 36.786305,49.744299 c 1.650064,-0.330012 1.799722,-0.54853 1.799722,-2.627799 0,-2.021296 -0.140879,-2.248267 -1.2958,-2.087677 -1.198259,0.166616 -1.3088,-0.06909 -1.468517,-3.131309 -0.167464,-3.210752 -0.128045,-3.311487 1.295799,-3.311487 1.32933,0 1.468518,-0.218342 1.468518,-2.303644 0,-2.073279 -0.143978,-2.303643 -1.439778,-2.303643 -1.343373,0 -1.439777,-0.192388 -1.439777,-2.873297 v -2.873297 l -3.167509,1.553492 c -2.466033,1.209456 -3.16751,1.845777 -3.16751,2.873297 0,0.935864 -0.335073,1.319805 -1.151822,1.319805 -0.959851,0 -1.151821,0.383941 -1.151821,2.303643 0,1.919703 0.19197,2.303644 1.151821,2.303644 1.053941,0 1.151822,0.38394 1.151822,4.518027 0,3.584476 0.208249,4.699442 1.007844,5.396004 1.782975,1.553225 3.345182,1.856607 6.407008,1.244241 z M 51.56075,49.381876 c 0.05927,-0.07782 -0.01471,-1.124613 -0.164394,-2.326196 -0.228372,-1.833253 -0.469996,-2.157509 -1.502021,-2.015688 -1.116611,0.153445 -1.245774,-0.135943 -1.402587,-3.142478 -0.167464,-3.210752 -0.128045,-3.311487 1.2958,-3.311487 1.329329,0 1.468517,-0.218342 1.468517,-2.303644 0,-2.073279 -0.143978,-2.303643 -1.439777,-2.303643 -1.343374,0 -1.439777,-0.192388 -1.439777,-2.873297 v -2.873297 l -3.16751,1.553492 c -2.466032,1.209456 -3.167509,1.845777 -3.167509,2.873297 0,0.935864 -0.335073,1.319805 -1.151822,1.319805 -0.959852,0 -1.151822,0.383941 -1.151822,2.303643 0,1.919703 0.19197,2.303644 1.151822,2.303644 1.046307,0 1.151822,0.38394 1.151822,4.191187 0,4.580682 0.826107,6.476362 3.028597,6.949768 1.182437,0.254154 6.239046,-0.0147 6.490661,-0.345106 z m 30.359187,0.353268 c 3.139538,-0.518947 5.0426,-2.509059 5.0426,-5.273251 0,-2.943231 -1.198176,-3.959042 -5.758515,-4.882041 -2.012802,-0.407386 -3.765011,-1.056814 -3.893796,-1.443174 -0.284506,-0.85352 2.507947,-0.970185 3.029337,-0.126562 0.195763,0.316751 1.636439,0.575911 3.2015,0.575911 3.309062,0 3.71664,-0.909011 1.431962,-3.193688 -1.235208,-1.235211 -1.929244,-1.413599 -5.499753,-1.413599 -5.899493,0 -8.060327,1.331976 -8.060327,4.968522 0,2.278331 2.214026,3.965259 6.245119,4.758329 2.298443,0.45219 3.535252,0.960985 3.392248,1.395491 -0.366038,1.112194 -2.875379,1.183028 -3.664786,0.103451 -0.5852,-0.800307 -1.244204,-0.904929 -3.631711,-0.576562 -3.320138,0.456635 -3.620901,1.159623 -1.432423,3.3481 1.875765,1.875763 5.203303,2.485583 9.598545,1.759073 z m 20.607333,-9.853318 c 1.34301,-5.62233 2.57194,-10.5654 2.73097,-10.984601 0.21133,-0.557076 -0.22079,-0.712056 -1.60578,-0.575911 l -1.89492,0.186273 -2.476391,10.07844 c -1.362023,5.543141 -2.488038,10.402389 -2.502263,10.798328 -0.01492,0.415988 0.677525,0.719888 1.640338,0.719888 h 1.666206 z m 7.4511,2.303643 c 1.07354,-4.355325 2.27494,-9.294299 2.66975,-10.975495 l 0.71785,-3.056722 -1.79486,0.177167 -1.79486,0.177168 -2.16311,8.638662 c -1.18971,4.751265 -2.3286,9.610513 -2.53086,10.798329 -0.35421,2.080153 -0.30678,2.159665 1.28822,2.159665 1.64909,0 1.66407,-0.03289 3.60787,-7.918774 z m -93.852866,2.467884 c 0,-4.150764 0.158005,-4.959541 1.063594,-5.444198 1.810693,-0.969053 2.391871,0.376845 2.391871,5.539118 v 4.78006 h 3.217068 3.217069 l -0.193537,-6.675055 c -0.17984,-6.202678 -0.289752,-6.752881 -1.553138,-7.774797 -1.498798,-1.212333 -5.208086,-1.478074 -7.028967,-0.503568 -1.044143,0.558809 -1.11396,0.378335 -1.11396,-2.879554 v -3.475728 h -3.16751 -3.1675096 v 10.654351 10.654351 h 3.1675096 3.16751 z m 79.475696,1.70747 v -3.16751 H 92.145735 88.69027 v 3.16751 3.16751 h 3.455465 3.455465 z m 0,-9.214574 V 33.97874 H 92.145735 88.69027 v 3.167509 3.16751 h 3.455465 3.455465 z"
     id="path4284"
     transform="scale(0.26458333)" />
  <path
     style="fill:#008000;stroke-width:0.575911"
     d="m 59.779366,43.458065 c -0.965302,-2.118609 0.0076,-4.584083 1.808971,-4.584083 1.731592,0 2.641968,2.292417 1.795024,4.520049 -0.758953,1.996197 -2.707865,2.030825 -3.603995,0.06403 z"
     id="path4323"
     transform="scale(0.26458333)" />
</svg>
