<?xml version="1.0" encoding="UTF-8" standalone="no"?>
<!-- Created with Inkscape (http://www.inkscape.org/) -->

<svg
   width="32.512001mm"
   height="32.236832mm"
   viewBox="0 0 32.512001 32.236831"
   version="1.1"
   id="svg5"
   xmlns="http://www.w3.org/2000/svg"
   xmlns:svg="http://www.w3.org/2000/svg">
  <defs
     id="defs2">
    <style
       id="style2760">.cls-1,.cls-2{fill-rule:evenodd;}.cls-2{fill:red;}.cls-3{fill:#fff;}</style>
  </defs>
  <style
     type="text/css"
     id="style9">.st0{fill-rule:evenodd;clip-rule:evenodd;}</style>
  <style
     type="text/css"
     id="style970">.st0{fill-rule:evenodd;clip-rule:evenodd;}</style>
  <g
     id="g2779"
     transform="scale(0.26458333)"
     style="display:inline">
    <path
       class="cls-1"
       d="M 102.42,37 H 81.92 A 8.52,8.52 0 0 1 73.07,28.3 V 7.53 H 21 a 0.58,0.58 0 0 0 -0.41,0.18 0.45,0.45 0 0 0 -0.18,0.42 v 105.58 a 0.7,0.7 0 0 0 0.18,0.41 0.51,0.51 0 0 0 0.41,0.18 h 80.84 c 0.18,0 0.17,-0.09 0.26,-0.18 0.09,-0.09 0.34,-0.28 0.34,-0.41 V 37 Z m 7.47,79.08 a 5.77,5.77 0 0 1 -5.76,5.76 H 18.66 A 5.77,5.77 0 0 1 12.9,116.08 V 5.76 A 5.7,5.7 0 0 1 14.59,1.69 5.77,5.77 0 0 1 18.66,0 H 76.9 a 4.22,4.22 0 0 1 2.46,0.82 l 29.75,30.12 a 2.57,2.57 0 0 1 0.78,2.6 v 82.53 z M 80,27.69 79.57,9.63 100.66,31 82.52,30.19 A 2.4,2.4 0 0 1 80,27.69 Z"
       id="path2766" />
    <path
       class="cls-2"
       d="m 6.71,46.28 h 109.46 a 6.73,6.73 0 0 1 6.71,6.72 v 45.1 a 6.73,6.73 0 0 1 -6.71,6.71 H 6.71 A 6.73,6.73 0 0 1 0,98.09 V 53 a 6.73,6.73 0 0 1 6.71,-6.71 z"
       id="path2768" />
    <path
       class="cls-3"
       d="m 8.07,62.65 h 8 v 9 h 8.71 v -9 h 8 v 25.78 h -8 V 78 H 16 V 88.43 H 8 V 62.65 Z m 27,0 H 59.25 V 69 h -8.14 v 19.43 h -8 V 69 H 35 v -6.35 z m 26.53,0 h 10.5 l 4,15.69 4,-15.69 H 90.53 V 88.43 H 84 V 68.78 l -5,19.65 h -5.9 l -5,-19.65 V 88.43 H 61.55 V 62.65 Z m 32.84,0 h 8 v 19.44 h 12.36 v 6.34 H 94.39 V 62.65 Z"
       id="path2770" />
  </g>
  <g
     id="g3503"
     transform="translate(25.786916,23.865047)"
     style="display:none">
    <path
       d="m -1.1229996,-21.9987 c 0.79355152,-0.793485 1.8336287,-1.190294 2.8736394,-1.190294 1.040011,0 2.0801543,0.396809 2.8737058,1.190294 0.7934855,0.793552 1.1902282,1.833629 1.1902282,2.87364 0,1.040143 -0.3967427,2.080154 -1.1902282,2.873705 -0.7935515,0.793486 -1.8336948,1.190295 -2.8737058,1.190295 -1.0400107,0 -2.08015403,-0.396809 -2.8736394,-1.190295 -0.7935516,-0.793485 -1.1902943,-1.833562 -1.1902943,-2.873705 0,-1.040011 0.3967427,-2.080088 1.1902943,-2.87364 z m 2.6234099,0.872265 c 0,-0.121708 0.09869,-0.220397 0.220464,-0.220397 0.1217745,0 0.220464,0.09869 0.220464,0.220397 v 1.811272 h 1.8112715 c 0.1217083,0 0.2203978,0.09869 0.2203978,0.220398 0,0.121774 -0.098689,0.220464 -0.2203978,0.220464 H 1.9412723 v 1.811271 c 0,0.121708 -0.09869,0.220398 -0.2204642,0.220398 -0.1217745,0 -0.220464,-0.09869 -0.220464,-0.220398 v -1.811338 h -1.8112052 c -0.12170833,0 -0.22046405,-0.09869 -0.22046405,-0.220464 0,-0.121708 0.0986896,-0.220398 0.22046405,-0.220398 h 1.8112714 z m 0.2502295,-1.621697 c -0.92723223,0 -1.85439828,0.353748 -2.56189413,1.061244 -0.70742967,0.70743 -1.06117757,1.634662 -1.06117757,2.561828 0,0.927232 0.3537479,1.854464 1.06117757,2.561894 0.70749585,0.707496 1.6346619,1.061244 2.56189413,1.061244 0.9272325,0 1.8543985,-0.353748 2.5618943,-1.061244 0.7074297,-0.70743 1.0612437,-1.634728 1.0612437,-2.561894 0,-0.927166 -0.353814,-1.854398 -1.0612437,-2.561828 -0.7074295,-0.707496 -1.6346618,-1.061244 -2.5618943,-1.061244 z"
       id="path3236"
       style="stroke-width:0.0661457" />
    <path
       style="fill:#ff9955;stroke-width:0.287955"
       d="m 3.1976387,-59.198601 c -2.29907524,-0.618256 -4.2971717,-1.793265 -6.0783902,-3.574484 -5.3745145,-5.374514 -5.3678503,-13.587981 0.015452,-19.044744 5.2514871,-5.323148 13.6480475,-5.306661 18.9920005,0.03729 5.366096,5.366096 5.366096,13.641356 0,19.007452 -3.449833,3.449833 -8.3523583,4.805229 -12.9290625,3.574484 z m 4.2258167,-8.254957 0.080592,-3.671431 h 3.5765306 c 3.086412,0 3.614607,-0.06804 3.854379,-0.496486 0.176259,-0.314958 0.177787,-0.683452 0.0042,-1.007844 -0.239685,-0.447854 -0.719417,-0.511358 -3.862983,-0.511358 H 7.486841 v -3.564184 c 0,-3.901251 -0.2398482,-4.56484 -1.4213704,-3.932508 -0.5515381,0.295174 -0.5943176,0.575812 -0.5943176,3.898777 v 3.580708 l -3.6714316,0.08059 c -3.6242392,0.07956 -3.6726808,0.08943 -3.7686143,0.767916 -0.053451,0.378028 0.076129,0.797179 0.2879554,0.931446 0.2118261,0.134267 1.9077024,0.246106 3.7686143,0.248531 l 3.3834762,0.0044 v 3.55145 c 0,1.953298 0.092335,3.643786 0.2051901,3.75664 0.1128547,0.112855 0.5339895,0.166847 0.9358552,0.119982 l 0.730665,-0.08521 z"
       id="path3382"
       transform="scale(0.26458333)" />
  </g>
  <g
     id="g3721"
     transform="translate(23.813994,37.290716)">
    <path
       d="m 1.3912112,-35.17926 c 0.7935515,-0.793485 1.8336287,-1.190294 2.8736395,-1.190294 1.040011,0 2.0801542,0.396809 2.8737057,1.190294 0.7934855,0.793552 1.1902283,1.833629 1.1902283,2.87364 0,1.040143 -0.3967428,2.080154 -1.1902283,2.873706 -0.7935515,0.793485 -1.8336947,1.190294 -2.8737057,1.190294 -1.0400108,0 -2.0801541,-0.396809 -2.8736395,-1.190294 -0.79355162,-0.793486 -1.19029433,-1.833563 -1.19029433,-2.873706 0,-1.040011 0.39674271,-2.080088 1.19029433,-2.87364 z m 4.8755432,2.683471 c 0.1217083,0 0.220398,0.09869 0.220398,0.220398 0,0.121774 -0.09869,0.220464 -0.220398,0.220464 -1.3544682,0 -2.7089365,0 -4.0634047,0 -0.1217083,0 -0.2204641,-0.09869 -0.2204641,-0.220464 0,-0.121709 0.09869,-0.220398 0.2204641,-0.220398 1.3544682,0 2.7090027,0 4.0634047,0 z m -2.0019037,-3.432903 c -0.9272323,0 -1.8543984,0.353748 -2.5618942,1.061244 -0.70742972,0.70743 -1.06117765,1.634662 -1.06117765,2.561828 0,0.927232 0.35374793,1.854465 1.06117765,2.561894 0.7074958,0.707496 1.6346619,1.061244 2.5618942,1.061244 0.9272325,0 1.8543985,-0.353748 2.5618942,-1.061244 0.7074298,-0.707429 1.0612438,-1.634728 1.0612438,-2.561894 0,-0.927166 -0.353814,-1.854398 -1.0612438,-2.561828 -0.7074295,-0.707496 -1.6346617,-1.061244 -2.5618942,-1.061244 z"
       id="path3534"
       style="stroke-width:0.0661457" />
    <path
       style="fill:#ff9955;stroke-width:0.575911"
       d="m 10.654351,-109.94129 c -8.5468881,-3.9656 -10.461835,-15.3251 -3.6697686,-21.76913 8.4641706,-8.03045 22.3615746,-2.05342 22.3615746,9.61732 0,5.39521 -3.241214,10.30011 -8.162936,12.3529 -2.888645,1.20481 -7.696691,1.11299 -10.52887,-0.20109 z m 14.000836,-12.00783 c -0.172101,-0.89669 -1.129513,-1.02542 -8.68089,-1.16722 -8.1932566,-0.15385 -8.487456,-0.11891 -8.487456,1.00785 0,1.12072 0.3457728,1.16721 8.680891,1.16721 7.957264,0 8.664766,-0.084 8.487455,-1.00784 z"
       id="path3600"
       transform="scale(0.26458333)" />
  </g>
</svg>
