<?xml version="1.0" encoding="UTF-8" standalone="no"?>
<!-- Created with Inkscape (http://www.inkscape.org/) -->

<svg
   width="800"
   height="400"
   viewBox="0 0 211.66667 105.83333"
   version="1.1"
   id="svg5"
   inkscape:version="1.1.2 (0a00cf5339, 2022-02-04)"
   sodipodi:docname="logo_cat.svg"
   xmlns:inkscape="http://www.inkscape.org/namespaces/inkscape"
   xmlns:sodipodi="http://sodipodi.sourceforge.net/DTD/sodipodi-0.dtd"
   xmlns="http://www.w3.org/2000/svg"
   xmlns:svg="http://www.w3.org/2000/svg">
  <sodipodi:namedview
     id="namedview7"
     pagecolor="#505050"
     bordercolor="#ffffff"
     borderopacity="1"
     inkscape:pageshadow="0"
     inkscape:pageopacity="0"
     inkscape:pagecheckerboard="1"
     inkscape:document-units="mm"
     showgrid="false"
     units="px"
     inkscape:zoom="0.64052329"
     inkscape:cx="252.9182"
     inkscape:cy="253.69882"
     inkscape:window-width="1231"
     inkscape:window-height="1520"
     inkscape:window-x="82"
     inkscape:window-y="35"
     inkscape:window-maximized="0"
     inkscape:current-layer="layer1" />
  <defs
     id="defs2">
    <style
       id="style2760">.cls-1,.cls-2{fill-rule:evenodd;}.cls-2{fill:red;}.cls-3{fill:#fff;}</style>
  </defs>
  <g
     inkscape:label="Layer 1"
     inkscape:groupmode="layer"
     id="layer1">
    <g
       id="g848"
       transform="matrix(2.4252899,0,0,2.4252899,72.760417,13.229167)"
       style="display:inline;mix-blend-mode:luminosity;fill:#ca9cb5;fill-opacity:0.13354;fill-rule:nonzero;stroke-width:0.99988;stroke-miterlimit:4;stroke-dasharray:none"
       inkscape:label="g848">
      <path
         class="st0"
         d="m 14.311534,7.9450978 c 0.407459,0 0.735542,0.3307292 0.735542,0.7355417 0,0.4048125 -0.330729,0.7355416 -0.735542,0.7355416 -0.404812,0 -0.738187,-0.3280833 -0.738187,-0.7328958 0,-0.4048125 0.330729,-0.7381875 0.738187,-0.7381875 z m 1.140355,23.5267492 h 0.01587 0.08202 c 0.127,-0.0026 0.150813,-0.01587 0.248709,-0.07937 l 0.09525,-0.06085 c 1.262062,-0.796396 1.862666,-1.973791 2.002896,-3.418416 0.148166,-1.534584 -0.211667,-3.37873 -0.862542,-5.3975 v 0 c -0.0026,-0.0079 -0.0053,-0.01588 -0.0079,-0.02381 L 15.399005,16.56788 c -0.15875,0.06879 -0.314854,0.134938 -0.473604,0.198438 -0.621771,0.259291 -1.262063,0.452437 -1.915584,0.587375 -0.703791,0.150812 -1.410229,0.232833 -2.119312,0.246062 -1.5134167,0.02381 -3.0268333,-0.275166 -4.5428958,-0.899583 L 5.381847,20.499577 c -0.1852083,0.724958 -0.3386667,1.367895 -0.4656667,1.947333 -0.1349375,0.613833 -0.2566458,1.211792 -0.3677708,1.820333 -0.055563,0.298979 -0.087313,0.463021 -0.1190625,0.629709 -0.3518958,1.812395 -0.7249583,3.743854 0.2883958,5.265208 0.2883959,0.433917 0.6614584,0.754062 1.11125,0.968375 0.460375,0.216958 1.0054167,0.330729 1.6298334,0.346604 0.013229,0 0.023813,0 0.037042,0 h 0.7381875 v -6.164792 c 0,-0.312208 0.254,-0.566208 0.5662084,-0.566208 0.3122083,0 0.5662083,0.254 0.5662083,0.566208 v 6.1595 h 3.0400616 v -6.1595 c 0,-0.312208 0.254,-0.566208 0.566209,-0.566208 0.312208,0 0.566208,0.254 0.566208,0.566208 v 6.1595 z M 3.8393262,0.4626811 5.9798053,2.4999728 c 1.5875,-0.6402917 3.1882292,-0.98425 4.8021877,-1.000125 1.61925,-0.013229 3.243791,0.3069167 4.876271,0.9974792 l 2.394479,-2.238375 c 0.227541,-0.2116667 0.582083,-0.2010834 0.79375,0.026458 0.100541,0.1084791 0.150812,0.2460625 0.150812,0.381 v 0 l 0.0291,4.778375 c 0.650875,1.1377083 1.037167,2.1986875 1.198563,3.1935208 l 0.960437,-0.312208 c 0.296334,-0.09525 0.613834,0.066146 0.71173,0.3624792 0.09525,0.2963333 -0.06615,0.6138333 -0.36248,0.7117291 l -1.219729,0.396875 c 0,0.026458 0,0.052917 -0.0026,0.076729 -0.02117,0.8440209 -0.211666,1.6298329 -0.53975,2.3680209 l 0.772584,0.103187 c 0.309562,0.03969 0.526521,0.322792 0.486833,0.632354 -0.03973,0.309563 -0.322834,0.526521 -0.632396,0.486834 L 19.185159,13.30291 c -0.07673,0.116417 -0.15875,0.230187 -0.243416,0.343958 -0.722313,0.971021 -1.584854,1.751542 -2.532063,2.352146 l 1.698625,6.172729 v 0 c 0.693209,2.153709 1.074209,4.143375 0.910167,5.847292 -0.129646,1.357312 -0.595313,2.529417 -1.505479,3.452812 h 2.767541 0.02911 v 0.0026 c 1.846791,0 3.280833,0 4.683125,-1.359958 0.814916,-0.788458 1.156229,-1.799167 1.127125,-2.804583 -0.01588,-0.550334 -0.145521,-1.103313 -0.367771,-1.621896 -0.224896,-0.521229 -0.542396,-1.002771 -0.936625,-1.410229 -0.772584,-0.796396 -1.844146,-1.31498 -3.090334,-1.277938 -0.309562,0.0079 -0.568854,-0.235479 -0.579437,-0.547687 -0.0079,-0.309563 0.235479,-0.568855 0.547687,-0.579438 1.5875,-0.04763 2.950105,0.605896 3.929063,1.616604 0.494771,0.510646 0.889,1.108604 1.164167,1.751542 0.275166,0.642938 0.436562,1.338792 0.455083,2.037292 0.03969,1.304395 -0.404813,2.614083 -1.465792,3.643312 -1.733021,1.677458 -3.362854,1.677458 -5.468937,1.677458 v 0.0026 h -0.0291 -4.704292 -0.05292 -2.413 c -0.04498,0.01058 -0.0926,0.01852 -0.140229,0.01852 -0.04763,0 -0.09525,-0.0053 -0.140229,-0.01852 H 8.937847 c -0.044979,0.01058 -0.092604,0.01852 -0.1402292,0.01852 -0.047625,0 -0.09525,-0.0053 -0.1402291,-0.01852 H 7.493222 c -0.021167,0 -0.039687,0 -0.060854,-0.0026 C 6.6465553,32.580456 5.9480553,32.432285 5.3448053,32.146535 4.7071595,31.84491 4.1806387,31.392473 3.7731803,30.781285 2.5058262,28.876285 2.9238678,26.714639 3.318097,24.682639 c 0.050271,-0.254 0.097896,-0.505354 0.1190625,-0.619125 0.111125,-0.608541 0.2354792,-1.219729 0.3783542,-1.860021 0.1481666,-0.672041 0.3042708,-1.325562 0.4709583,-1.981729 l 1.0345208,-4.066646 c -1.143,-0.669396 -2.111375,-1.563687 -2.7860625,-2.651125 -0.037042,-0.06085 -0.074083,-0.121708 -0.1084791,-0.179916 l -0.9128125,0.11377 C 1.2040762,13.474889 0.92361779,13.255285 0.88393029,12.945722 0.84688863,12.63616 1.0664928,12.355702 1.3760553,12.316014 l 0.5423959,-0.06615 C 1.6327012,11.477285 1.4845345,10.633264 1.4977637,9.7283895 L 0.49763863,9.402952 C 0.20130529,9.307702 0.03990946,8.9875561 0.13515946,8.6912228 0.23040946,8.3948895 0.55055529,8.2334936 0.84688863,8.3287436 L 1.6009512,8.5748061 C 1.7597012,7.593202 2.1036595,6.5507436 2.6645762,5.4527228 L 2.8868262,0.846327 C 2.9027012,0.5367645 3.1646387,0.2959936 3.476847,0.3092228 c 0.142875,0.00529 0.2672292,0.0635 0.3624792,0.1534583 z M 5.4691595,3.5715353 3.953097,2.1295561 3.7837637,5.624702 v 0 c -0.00265,0.079375 -0.023813,0.15875 -0.0635,0.2328333 -0.5715,1.0927292 -0.9022292,2.1193125 -1.0292292,3.0691667 l 3.540125,1.148292 c 0.2963333,0.09525 0.4577292,0.415395 0.3624792,0.711728 -0.09525,0.296334 -0.4153959,0.45773 -0.7117292,0.36248 L 2.635472,10.093514 c 0.029104,0.724958 0.1852083,1.397 0.4418542,2.008188 l 2.9130625,-0.36248 c 0.3095625,-0.03704 0.5900208,0.182563 0.6297083,0.492125 0.037042,0.309563 -0.1825625,0.592667 -0.492125,0.629709 l -2.460625,0.306916 c 0.5900208,0.846667 1.4049375,1.547813 2.3521458,2.082271 1.0609792,0.597959 2.2886459,0.98425 3.571875,1.132417 1.1350622,0.132292 2.3071662,0.07408 3.4369372,-0.187854 0.433917,-0.105834 0.867834,-0.240771 1.30175,-0.404813 1.362604,-0.537104 2.608792,-1.410229 3.585104,-2.661708 L 15.899034,12.85841 c -0.309562,-0.03969 -0.52652,-0.322792 -0.486833,-0.632354 0.03969,-0.309563 0.322792,-0.526521 0.632354,-0.486834 l 2.550584,0.341313 c 0.312208,-0.60325 0.510645,-1.23825 0.5715,-1.915583 l -3.021542,0.978958 c -0.296333,0.09525 -0.613833,-0.06615 -0.711729,-0.362479 -0.09525,-0.296334 0.06615,-0.613834 0.362479,-0.711729 L 19.137534,8.9849103 C 19.01318,8.0403478 18.640118,7.0084728 17.978659,5.8760561 v 0 C 17.931029,5.7940351 17.901929,5.6961395 17.901929,5.592952 L 17.880759,1.9602228 16.179488,3.5530145 C 16.018092,3.7223478 15.761446,3.7779103 15.53655,3.6773686 13.943759,2.9524103 12.36155,2.6163895 10.789925,2.6296186 9.2183003,2.6428478 7.6493212,3.0079728 6.080342,3.6826603 v 0 C 5.8792637,3.767327 5.6384928,3.7302853 5.4691595,3.5715353 Z m 4.5428965,6.9479577 c -0.312209,0 -0.566209,-0.254 -0.566209,-0.5662077 0,-0.3122083 0.254,-0.5662083 0.566209,-0.5662083 h 1.748895 c 0.312208,0 0.566208,0.254 0.566208,0.5662083 0,0.3122077 -0.254,0.5662077 -0.566208,0.5662077 h -0.3175 c 0.02117,0.330729 0.07938,0.621771 0.166688,0.867834 0.129645,0.370416 0.325437,0.640291 0.560916,0.81227 0.230188,0.169334 0.505354,0.256646 0.801688,0.261938 0.227541,0.0053 0.468312,-0.03704 0.717021,-0.124354 0.293687,-0.103188 0.616479,0.05027 0.719666,0.343958 0.103188,0.293688 -0.05027,0.616479 -0.343958,0.719667 -0.373062,0.132291 -0.748771,0.195791 -1.116542,0.187854 -0.529166,-0.01058 -1.023937,-0.166688 -1.444625,-0.478896 -0.20902,-0.156104 -0.399521,-0.346604 -0.563562,-0.574146 -0.145521,0.235479 -0.3175,0.420688 -0.515938,0.568854 -0.6588122,0.48948 -1.4948955,0.492125 -2.3997705,0.365125 -0.3095625,-0.04233 -0.523875,-0.328083 -0.4815417,-0.635 0.042333,-0.309562 0.3280834,-0.523875 0.635,-0.481541 0.6455834,0.08996 1.2197292,0.108479 1.5689792,-0.153459 0.3175,-0.238125 0.523875,-0.740833 0.552979,-1.680104 z M 7.5196803,7.9450978 c 0.4074584,0 0.7355417,0.3307292 0.7355417,0.7355417 0,0.4048125 -0.3307292,0.7355416 -0.7355417,0.7355416 -0.4074583,0 -0.7355416,-0.3307291 -0.7355416,-0.7355416 0,-0.4048125 0.3280833,-0.7355417 0.7355416,-0.7355417 z"
         id="path5032"
         style="display:inline;opacity:0.422497;mix-blend-mode:color-dodge;fill:#d0b1be;fill-opacity:0.0816512;fill-rule:nonzero;stroke-width:0.99988;stroke-miterlimit:4;stroke-dasharray:none" />
      <path
         style="fill:#d0b1be;fill-opacity:0.0816512;fill-rule:nonzero;stroke-width:3.77908;stroke-miterlimit:4;stroke-dasharray:none"
         d="m 25.623123,118.09262 c -7.13413,-1.20747 -10.633899,-7.70758 -9.348909,-17.3637 0.989215,-7.433504 3.814485,-20.230238 7.780662,-35.241606 l 0.396872,-1.502098 2.182741,0.750973 c 4.856265,1.6708 8.443889,2.229963 14.088557,2.195827 5.874854,-0.03553 9.241964,-0.597144 14.055581,-2.344393 1.548045,-0.56191 2.878076,-0.958208 2.955621,-0.880661 0.11999,0.11999 5.005294,17.442678 7.471942,26.494586 0.997723,3.661366 1.981359,9.979922 1.984434,12.747372 0.0062,5.56076 -2.254505,10.74548 -6.019502,13.80525 l -2.153215,1.74989 H 55.368088 51.718269 V 106.5686 c 0,-12.997379 -0.01835,-13.105571 -2.299155,-13.553373 -0.981578,-0.192718 -1.481408,-0.05119 -2.13796,0.60536 -0.832292,0.832292 -0.856881,1.201615 -0.856881,12.870183 v 12.01329 h -5.293996 -5.293996 v -12.19382 c 0,-12.139104 -0.0041,-12.196664 -0.905072,-12.827757 -1.214164,-0.850433 -2.033714,-0.798511 -3.315929,0.21008 l -1.072995,0.844018 v 11.983739 11.98374 l -1.527114,-0.0479 c -0.839913,-0.0263 -2.366335,-0.18994 -3.392048,-0.36355 z"
         id="path5231"
         transform="scale(0.26458333)" />
      <path
         style="fill:#d0b1be;fill-opacity:0.0816512;fill-rule:nonzero;stroke-width:3.77908;stroke-miterlimit:4;stroke-dasharray:none"
         d="M 34.274109,61.060315 C 28.020027,59.948323 21.38915,56.691465 17.352616,52.749059 L 14.863912,50.318386 19.40913,49.69483 c 5.777444,-0.792608 7.217549,-1.916703 5.814398,-4.538514 -0.736208,-1.375618 -1.958461,-1.501263 -7.635894,-0.784956 -4.916201,0.620265 -5.451935,0.624447 -5.754371,0.04493 -0.388626,-0.744674 -1.321284,-4.974662 -1.137395,-5.158552 0.06862,-0.06862 2.683789,0.689514 5.81148,1.684748 3.127692,0.995234 6.099033,1.811136 6.602981,1.813116 2.120337,0.0083 3.312478,-2.894187 1.807042,-4.399623 -0.405982,-0.405982 -3.704549,-1.69511 -7.330149,-2.86473 -5.259476,-1.696709 -6.591999,-2.273425 -6.591999,-2.853013 0,-1.185498 1.186244,-4.826491 2.677557,-8.21835 1.199957,-2.729196 1.40092,-3.64644 1.438945,-6.567715 0.02431,-1.867518 0.16175,-4.457111 0.305423,-5.754653 l 0.261225,-2.3591656 2.768271,2.4609736 c 1.52255,1.353536 3.080207,2.460919 3.461459,2.460852 0.381253,-6.7e-5 2.489383,-0.642169 4.684732,-1.426893 9.863656,-3.525746 18.828722,-3.5169178 28.746857,0.02831 2.151785,0.769154 4.232273,1.398517 4.623304,1.398584 0.391031,6.7e-5 2.010171,-1.192158 3.598089,-2.649389 1.587917,-1.457231 3.054704,-2.5459386 3.259533,-2.4193495 0.204825,0.1265907 0.372408,2.9727285 0.372408,6.3247535 v 6.094589 l 1.378272,2.73864 c 1.624043,3.226984 3.253287,8.260067 2.804938,8.665037 -0.172987,0.156248 -2.971699,1.155451 -6.219362,2.22045 -3.247663,1.064999 -6.225536,2.215781 -6.617495,2.557292 -0.938634,0.817824 -0.920402,3.031068 0.03205,3.893041 1.078672,0.976187 1.973907,0.860672 7.655823,-0.987855 2.80941,-0.914 5.198346,-1.57149 5.308746,-1.46109 0.355471,0.355474 -1.244647,4.838598 -1.803542,5.053067 -0.297018,0.113975 -2.59337,-0.07083 -5.103005,-0.410669 -5.685369,-0.769887 -6.538521,-0.513192 -6.723176,2.022854 -0.157789,2.167088 0.72022,2.807236 4.399971,3.207976 4.508819,0.491026 4.516996,0.508623 1.511924,3.252134 -4.125517,3.76643 -8.500406,6.122906 -14.364727,7.737355 -2.871575,0.790548 -11.99302,1.127841 -15.179349,0.561306 z m 17.054843,-9.345442 c 2.650309,-0.502621 3.647161,-1.336482 3.647161,-3.050833 0,-2.139208 -1.083559,-2.770227 -4.186338,-2.437948 -3.355785,0.359374 -4.919788,-0.363499 -6.017482,-2.781246 -1.079306,-2.377247 -0.996985,-2.899878 0.527705,-3.350239 1.720428,-0.508178 2.391076,-2.192985 1.503462,-3.77701 -0.595344,-1.062445 -0.727946,-1.095393 -4.873319,-1.210903 -2.343728,-0.06531 -4.679876,-0.01444 -5.191441,0.113042 -2.321171,0.57843 -1.990507,4.491593 0.420285,4.973752 1.15883,0.231766 1.195387,0.306221 0.939028,1.912471 -0.541424,3.392355 -2.207456,4.564544 -5.847472,4.11417 -2.805955,-0.347177 -4.151639,0.42279 -4.151639,2.375465 0,2.323872 0.755261,2.87968 4.145717,3.050888 3.692813,0.186479 6.029357,-0.405011 7.823831,-1.980579 1.186232,-1.041526 1.438486,-1.12215 1.87297,-0.59863 1.202326,1.448713 3.309413,2.359431 6.97246,3.013606 0.137413,0.02456 1.224195,-0.140161 2.415072,-0.366006 z M 30.105929,35.647727 c 3.299137,-1.706051 1.257869,-7.026751 -2.35038,-6.126418 -1.798444,0.44875 -2.50726,1.380067 -2.50726,3.294302 0,1.394564 0.212951,1.907372 1.072995,2.583883 1.267752,0.997214 2.216002,1.059409 3.784645,0.248233 z m 26.600913,-0.658636 c 0.818619,-1.001613 0.918085,-3.127425 0.190665,-4.074865 -1.381993,-1.799995 -4.204556,-1.930617 -5.382348,-0.249084 -1.030917,1.471841 -0.788016,3.75137 0.508406,4.771134 1.375079,1.081637 3.608034,0.868422 4.683277,-0.447185 z"
         id="path5640"
         transform="scale(0.26458333)" />
      <path
         style="fill:#d0b1be;fill-opacity:0.0816512;fill-rule:nonzero;stroke-width:3.77908;stroke-miterlimit:4;stroke-dasharray:none"
         d="m 27.399791,118.03791 c -5.438331,-0.48582 -8.785534,-3.08726 -10.305933,-8.00974 -1.719769,-5.56796 -0.835264,-11.923882 4.958831,-35.633403 2.120013,-8.675124 2.564195,-10.067558 3.138012,-9.837123 2.615188,1.050212 9.03234,2.294526 12.885347,2.498525 6.539581,0.34624 11.286833,-0.395873 18.984164,-2.967693 0.454262,-0.151778 0.720668,0.07473 0.858092,0.729564 0.109614,0.522324 1.870483,6.905425 3.913041,14.18467 4.101572,14.617124 4.954451,18.751373 4.954451,24.01619 0,5.73024 -2.102327,10.50212 -6.10232,13.8511 -1.946444,1.62966 -1.961157,1.63406 -5.458456,1.63406 h -3.506751 v -11.92268 c 0,-13.363214 -0.07017,-13.732834 -2.606974,-13.732834 -2.664934,0 -2.687022,0.111569 -2.687022,13.572474 v 12.08304 h -5.293996 -5.293996 v -12.18782 c 0,-10.536869 -0.08669,-12.274512 -0.639934,-12.827761 -0.84884,-0.84884 -2.72598,-0.812878 -3.795853,0.07272 -0.836449,0.692379 -0.8638,1.054425 -0.961383,12.725951 l -0.100441,12.0133 z"
         id="path5679"
         transform="scale(0.26458333)" />
    </g>
  </g>
  <style
     type="text/css"
     id="style9">.st0{fill-rule:evenodd;clip-rule:evenodd;}</style>
  <style
     type="text/css"
     id="style970">.st0{fill-rule:evenodd;clip-rule:evenodd;}</style>
  <style
     type="text/css"
     id="style3952"><![CDATA[
	.st0{fill-rule:evenodd;clip-rule:evenodd;}
	.st1{fill-rule:evenodd;clip-rule:evenodd;fill:#FFFFFF;}
]]></style>
  <style
     type="text/css"
     id="style4812"><![CDATA[
	.st0{fill-rule:evenodd;clip-rule:evenodd;}
	.st1{fill-rule:evenodd;clip-rule:evenodd;fill:#FFFFFF;}
]]></style>
  <style
     type="text/css"
     id="style5030">.st0{fill-rule:evenodd;clip-rule:evenodd;stroke:#000000;stroke-width:0.216;stroke-miterlimit:2.6131;}</style>
</svg>
